%TF.GenerationSoftware,KiCad,Pcbnew,7.0.2-27-g7a50654f3b*%
%TF.CreationDate,2023-06-01T09:40:15-07:00*%
%TF.ProjectId,14_pin_pmt_Rev2,31345f70-696e-45f7-906d-745f52657632,rev?*%
%TF.SameCoordinates,Original*%
%TF.FileFunction,Legend,Top*%
%TF.FilePolarity,Positive*%
%FSLAX46Y46*%
G04 Gerber Fmt 4.6, Leading zero omitted, Abs format (unit mm)*
G04 Created by KiCad (PCBNEW 7.0.2-27-g7a50654f3b) date 2023-06-01 09:40:15*
%MOMM*%
%LPD*%
G01*
G04 APERTURE LIST*
%ADD10C,0.150000*%
%ADD11C,0.254000*%
%ADD12C,0.127000*%
%ADD13C,0.120000*%
%ADD14C,0.100000*%
%ADD15C,0.200000*%
G04 APERTURE END LIST*
D10*
X198121155Y-92075000D02*
G75*
G03*
X198121155Y-92075000I-27941155J0D01*
G01*
X179498666Y-68550619D02*
X179498666Y-69264904D01*
X179498666Y-69264904D02*
X179451047Y-69407761D01*
X179451047Y-69407761D02*
X179355809Y-69503000D01*
X179355809Y-69503000D02*
X179212952Y-69550619D01*
X179212952Y-69550619D02*
X179117714Y-69550619D01*
X179927238Y-68645857D02*
X179974857Y-68598238D01*
X179974857Y-68598238D02*
X180070095Y-68550619D01*
X180070095Y-68550619D02*
X180308190Y-68550619D01*
X180308190Y-68550619D02*
X180403428Y-68598238D01*
X180403428Y-68598238D02*
X180451047Y-68645857D01*
X180451047Y-68645857D02*
X180498666Y-68741095D01*
X180498666Y-68741095D02*
X180498666Y-68836333D01*
X180498666Y-68836333D02*
X180451047Y-68979190D01*
X180451047Y-68979190D02*
X179879619Y-69550619D01*
X179879619Y-69550619D02*
X180498666Y-69550619D01*
X133857904Y-119765619D02*
X133286476Y-119765619D01*
X133572190Y-119765619D02*
X133572190Y-118765619D01*
X133572190Y-118765619D02*
X133476952Y-118908476D01*
X133476952Y-118908476D02*
X133381714Y-119003714D01*
X133381714Y-119003714D02*
X133286476Y-119051333D01*
X134715047Y-119098952D02*
X134715047Y-119765619D01*
X134476952Y-118718000D02*
X134238857Y-119432285D01*
X134238857Y-119432285D02*
X134857904Y-119432285D01*
X136000762Y-119765619D02*
X136000762Y-118765619D01*
X136000762Y-118765619D02*
X136381714Y-118765619D01*
X136381714Y-118765619D02*
X136476952Y-118813238D01*
X136476952Y-118813238D02*
X136524571Y-118860857D01*
X136524571Y-118860857D02*
X136572190Y-118956095D01*
X136572190Y-118956095D02*
X136572190Y-119098952D01*
X136572190Y-119098952D02*
X136524571Y-119194190D01*
X136524571Y-119194190D02*
X136476952Y-119241809D01*
X136476952Y-119241809D02*
X136381714Y-119289428D01*
X136381714Y-119289428D02*
X136000762Y-119289428D01*
X137000762Y-119765619D02*
X137000762Y-119098952D01*
X137000762Y-118765619D02*
X136953143Y-118813238D01*
X136953143Y-118813238D02*
X137000762Y-118860857D01*
X137000762Y-118860857D02*
X137048381Y-118813238D01*
X137048381Y-118813238D02*
X137000762Y-118765619D01*
X137000762Y-118765619D02*
X137000762Y-118860857D01*
X137476952Y-119098952D02*
X137476952Y-119765619D01*
X137476952Y-119194190D02*
X137524571Y-119146571D01*
X137524571Y-119146571D02*
X137619809Y-119098952D01*
X137619809Y-119098952D02*
X137762666Y-119098952D01*
X137762666Y-119098952D02*
X137857904Y-119146571D01*
X137857904Y-119146571D02*
X137905523Y-119241809D01*
X137905523Y-119241809D02*
X137905523Y-119765619D01*
X139143619Y-119765619D02*
X139143619Y-118765619D01*
X139143619Y-118765619D02*
X139524571Y-118765619D01*
X139524571Y-118765619D02*
X139619809Y-118813238D01*
X139619809Y-118813238D02*
X139667428Y-118860857D01*
X139667428Y-118860857D02*
X139715047Y-118956095D01*
X139715047Y-118956095D02*
X139715047Y-119098952D01*
X139715047Y-119098952D02*
X139667428Y-119194190D01*
X139667428Y-119194190D02*
X139619809Y-119241809D01*
X139619809Y-119241809D02*
X139524571Y-119289428D01*
X139524571Y-119289428D02*
X139143619Y-119289428D01*
X140143619Y-119765619D02*
X140143619Y-118765619D01*
X140143619Y-118765619D02*
X140476952Y-119479904D01*
X140476952Y-119479904D02*
X140810285Y-118765619D01*
X140810285Y-118765619D02*
X140810285Y-119765619D01*
X141143619Y-118765619D02*
X141715047Y-118765619D01*
X141429333Y-119765619D02*
X141429333Y-118765619D01*
X143143619Y-119241809D02*
X143286476Y-119289428D01*
X143286476Y-119289428D02*
X143334095Y-119337047D01*
X143334095Y-119337047D02*
X143381714Y-119432285D01*
X143381714Y-119432285D02*
X143381714Y-119575142D01*
X143381714Y-119575142D02*
X143334095Y-119670380D01*
X143334095Y-119670380D02*
X143286476Y-119718000D01*
X143286476Y-119718000D02*
X143191238Y-119765619D01*
X143191238Y-119765619D02*
X142810286Y-119765619D01*
X142810286Y-119765619D02*
X142810286Y-118765619D01*
X142810286Y-118765619D02*
X143143619Y-118765619D01*
X143143619Y-118765619D02*
X143238857Y-118813238D01*
X143238857Y-118813238D02*
X143286476Y-118860857D01*
X143286476Y-118860857D02*
X143334095Y-118956095D01*
X143334095Y-118956095D02*
X143334095Y-119051333D01*
X143334095Y-119051333D02*
X143286476Y-119146571D01*
X143286476Y-119146571D02*
X143238857Y-119194190D01*
X143238857Y-119194190D02*
X143143619Y-119241809D01*
X143143619Y-119241809D02*
X142810286Y-119241809D01*
X143953143Y-119765619D02*
X143857905Y-119718000D01*
X143857905Y-119718000D02*
X143810286Y-119670380D01*
X143810286Y-119670380D02*
X143762667Y-119575142D01*
X143762667Y-119575142D02*
X143762667Y-119289428D01*
X143762667Y-119289428D02*
X143810286Y-119194190D01*
X143810286Y-119194190D02*
X143857905Y-119146571D01*
X143857905Y-119146571D02*
X143953143Y-119098952D01*
X143953143Y-119098952D02*
X144096000Y-119098952D01*
X144096000Y-119098952D02*
X144191238Y-119146571D01*
X144191238Y-119146571D02*
X144238857Y-119194190D01*
X144238857Y-119194190D02*
X144286476Y-119289428D01*
X144286476Y-119289428D02*
X144286476Y-119575142D01*
X144286476Y-119575142D02*
X144238857Y-119670380D01*
X144238857Y-119670380D02*
X144191238Y-119718000D01*
X144191238Y-119718000D02*
X144096000Y-119765619D01*
X144096000Y-119765619D02*
X143953143Y-119765619D01*
X145143619Y-119765619D02*
X145143619Y-119241809D01*
X145143619Y-119241809D02*
X145096000Y-119146571D01*
X145096000Y-119146571D02*
X145000762Y-119098952D01*
X145000762Y-119098952D02*
X144810286Y-119098952D01*
X144810286Y-119098952D02*
X144715048Y-119146571D01*
X145143619Y-119718000D02*
X145048381Y-119765619D01*
X145048381Y-119765619D02*
X144810286Y-119765619D01*
X144810286Y-119765619D02*
X144715048Y-119718000D01*
X144715048Y-119718000D02*
X144667429Y-119622761D01*
X144667429Y-119622761D02*
X144667429Y-119527523D01*
X144667429Y-119527523D02*
X144715048Y-119432285D01*
X144715048Y-119432285D02*
X144810286Y-119384666D01*
X144810286Y-119384666D02*
X145048381Y-119384666D01*
X145048381Y-119384666D02*
X145143619Y-119337047D01*
X145619810Y-119765619D02*
X145619810Y-119098952D01*
X145619810Y-119289428D02*
X145667429Y-119194190D01*
X145667429Y-119194190D02*
X145715048Y-119146571D01*
X145715048Y-119146571D02*
X145810286Y-119098952D01*
X145810286Y-119098952D02*
X145905524Y-119098952D01*
X146667429Y-119765619D02*
X146667429Y-118765619D01*
X146667429Y-119718000D02*
X146572191Y-119765619D01*
X146572191Y-119765619D02*
X146381715Y-119765619D01*
X146381715Y-119765619D02*
X146286477Y-119718000D01*
X146286477Y-119718000D02*
X146238858Y-119670380D01*
X146238858Y-119670380D02*
X146191239Y-119575142D01*
X146191239Y-119575142D02*
X146191239Y-119289428D01*
X146191239Y-119289428D02*
X146238858Y-119194190D01*
X146238858Y-119194190D02*
X146286477Y-119146571D01*
X146286477Y-119146571D02*
X146381715Y-119098952D01*
X146381715Y-119098952D02*
X146572191Y-119098952D01*
X146572191Y-119098952D02*
X146667429Y-119146571D01*
X147762668Y-119098952D02*
X148143620Y-119098952D01*
X147905525Y-119765619D02*
X147905525Y-118908476D01*
X147905525Y-118908476D02*
X147953144Y-118813238D01*
X147953144Y-118813238D02*
X148048382Y-118765619D01*
X148048382Y-118765619D02*
X148143620Y-118765619D01*
X148619811Y-119765619D02*
X148524573Y-119718000D01*
X148524573Y-119718000D02*
X148476954Y-119670380D01*
X148476954Y-119670380D02*
X148429335Y-119575142D01*
X148429335Y-119575142D02*
X148429335Y-119289428D01*
X148429335Y-119289428D02*
X148476954Y-119194190D01*
X148476954Y-119194190D02*
X148524573Y-119146571D01*
X148524573Y-119146571D02*
X148619811Y-119098952D01*
X148619811Y-119098952D02*
X148762668Y-119098952D01*
X148762668Y-119098952D02*
X148857906Y-119146571D01*
X148857906Y-119146571D02*
X148905525Y-119194190D01*
X148905525Y-119194190D02*
X148953144Y-119289428D01*
X148953144Y-119289428D02*
X148953144Y-119575142D01*
X148953144Y-119575142D02*
X148905525Y-119670380D01*
X148905525Y-119670380D02*
X148857906Y-119718000D01*
X148857906Y-119718000D02*
X148762668Y-119765619D01*
X148762668Y-119765619D02*
X148619811Y-119765619D01*
X149381716Y-119765619D02*
X149381716Y-119098952D01*
X149381716Y-119289428D02*
X149429335Y-119194190D01*
X149429335Y-119194190D02*
X149476954Y-119146571D01*
X149476954Y-119146571D02*
X149572192Y-119098952D01*
X149572192Y-119098952D02*
X149667430Y-119098952D01*
X150715050Y-119718000D02*
X150857907Y-119765619D01*
X150857907Y-119765619D02*
X151096002Y-119765619D01*
X151096002Y-119765619D02*
X151191240Y-119718000D01*
X151191240Y-119718000D02*
X151238859Y-119670380D01*
X151238859Y-119670380D02*
X151286478Y-119575142D01*
X151286478Y-119575142D02*
X151286478Y-119479904D01*
X151286478Y-119479904D02*
X151238859Y-119384666D01*
X151238859Y-119384666D02*
X151191240Y-119337047D01*
X151191240Y-119337047D02*
X151096002Y-119289428D01*
X151096002Y-119289428D02*
X150905526Y-119241809D01*
X150905526Y-119241809D02*
X150810288Y-119194190D01*
X150810288Y-119194190D02*
X150762669Y-119146571D01*
X150762669Y-119146571D02*
X150715050Y-119051333D01*
X150715050Y-119051333D02*
X150715050Y-118956095D01*
X150715050Y-118956095D02*
X150762669Y-118860857D01*
X150762669Y-118860857D02*
X150810288Y-118813238D01*
X150810288Y-118813238D02*
X150905526Y-118765619D01*
X150905526Y-118765619D02*
X151143621Y-118765619D01*
X151143621Y-118765619D02*
X151286478Y-118813238D01*
X152143621Y-119765619D02*
X152143621Y-119241809D01*
X152143621Y-119241809D02*
X152096002Y-119146571D01*
X152096002Y-119146571D02*
X152000764Y-119098952D01*
X152000764Y-119098952D02*
X151810288Y-119098952D01*
X151810288Y-119098952D02*
X151715050Y-119146571D01*
X152143621Y-119718000D02*
X152048383Y-119765619D01*
X152048383Y-119765619D02*
X151810288Y-119765619D01*
X151810288Y-119765619D02*
X151715050Y-119718000D01*
X151715050Y-119718000D02*
X151667431Y-119622761D01*
X151667431Y-119622761D02*
X151667431Y-119527523D01*
X151667431Y-119527523D02*
X151715050Y-119432285D01*
X151715050Y-119432285D02*
X151810288Y-119384666D01*
X151810288Y-119384666D02*
X152048383Y-119384666D01*
X152048383Y-119384666D02*
X152143621Y-119337047D01*
X152619812Y-119765619D02*
X152619812Y-119098952D01*
X152619812Y-118765619D02*
X152572193Y-118813238D01*
X152572193Y-118813238D02*
X152619812Y-118860857D01*
X152619812Y-118860857D02*
X152667431Y-118813238D01*
X152667431Y-118813238D02*
X152619812Y-118765619D01*
X152619812Y-118765619D02*
X152619812Y-118860857D01*
X153096002Y-119098952D02*
X153096002Y-119765619D01*
X153096002Y-119194190D02*
X153143621Y-119146571D01*
X153143621Y-119146571D02*
X153238859Y-119098952D01*
X153238859Y-119098952D02*
X153381716Y-119098952D01*
X153381716Y-119098952D02*
X153476954Y-119146571D01*
X153476954Y-119146571D02*
X153524573Y-119241809D01*
X153524573Y-119241809D02*
X153524573Y-119765619D01*
X153857907Y-119098952D02*
X154238859Y-119098952D01*
X154000764Y-118765619D02*
X154000764Y-119622761D01*
X154000764Y-119622761D02*
X154048383Y-119718000D01*
X154048383Y-119718000D02*
X154143621Y-119765619D01*
X154143621Y-119765619D02*
X154238859Y-119765619D01*
X155857907Y-118813238D02*
X155762669Y-118765619D01*
X155762669Y-118765619D02*
X155619812Y-118765619D01*
X155619812Y-118765619D02*
X155476955Y-118813238D01*
X155476955Y-118813238D02*
X155381717Y-118908476D01*
X155381717Y-118908476D02*
X155334098Y-119003714D01*
X155334098Y-119003714D02*
X155286479Y-119194190D01*
X155286479Y-119194190D02*
X155286479Y-119337047D01*
X155286479Y-119337047D02*
X155334098Y-119527523D01*
X155334098Y-119527523D02*
X155381717Y-119622761D01*
X155381717Y-119622761D02*
X155476955Y-119718000D01*
X155476955Y-119718000D02*
X155619812Y-119765619D01*
X155619812Y-119765619D02*
X155715050Y-119765619D01*
X155715050Y-119765619D02*
X155857907Y-119718000D01*
X155857907Y-119718000D02*
X155905526Y-119670380D01*
X155905526Y-119670380D02*
X155905526Y-119337047D01*
X155905526Y-119337047D02*
X155715050Y-119337047D01*
X156476955Y-119765619D02*
X156381717Y-119718000D01*
X156381717Y-119718000D02*
X156334098Y-119670380D01*
X156334098Y-119670380D02*
X156286479Y-119575142D01*
X156286479Y-119575142D02*
X156286479Y-119289428D01*
X156286479Y-119289428D02*
X156334098Y-119194190D01*
X156334098Y-119194190D02*
X156381717Y-119146571D01*
X156381717Y-119146571D02*
X156476955Y-119098952D01*
X156476955Y-119098952D02*
X156619812Y-119098952D01*
X156619812Y-119098952D02*
X156715050Y-119146571D01*
X156715050Y-119146571D02*
X156762669Y-119194190D01*
X156762669Y-119194190D02*
X156810288Y-119289428D01*
X156810288Y-119289428D02*
X156810288Y-119575142D01*
X156810288Y-119575142D02*
X156762669Y-119670380D01*
X156762669Y-119670380D02*
X156715050Y-119718000D01*
X156715050Y-119718000D02*
X156619812Y-119765619D01*
X156619812Y-119765619D02*
X156476955Y-119765619D01*
X157238860Y-119765619D02*
X157238860Y-118765619D01*
X157238860Y-119146571D02*
X157334098Y-119098952D01*
X157334098Y-119098952D02*
X157524574Y-119098952D01*
X157524574Y-119098952D02*
X157619812Y-119146571D01*
X157619812Y-119146571D02*
X157667431Y-119194190D01*
X157667431Y-119194190D02*
X157715050Y-119289428D01*
X157715050Y-119289428D02*
X157715050Y-119575142D01*
X157715050Y-119575142D02*
X157667431Y-119670380D01*
X157667431Y-119670380D02*
X157619812Y-119718000D01*
X157619812Y-119718000D02*
X157524574Y-119765619D01*
X157524574Y-119765619D02*
X157334098Y-119765619D01*
X157334098Y-119765619D02*
X157238860Y-119718000D01*
X158572193Y-119765619D02*
X158572193Y-119241809D01*
X158572193Y-119241809D02*
X158524574Y-119146571D01*
X158524574Y-119146571D02*
X158429336Y-119098952D01*
X158429336Y-119098952D02*
X158238860Y-119098952D01*
X158238860Y-119098952D02*
X158143622Y-119146571D01*
X158572193Y-119718000D02*
X158476955Y-119765619D01*
X158476955Y-119765619D02*
X158238860Y-119765619D01*
X158238860Y-119765619D02*
X158143622Y-119718000D01*
X158143622Y-119718000D02*
X158096003Y-119622761D01*
X158096003Y-119622761D02*
X158096003Y-119527523D01*
X158096003Y-119527523D02*
X158143622Y-119432285D01*
X158143622Y-119432285D02*
X158238860Y-119384666D01*
X158238860Y-119384666D02*
X158476955Y-119384666D01*
X158476955Y-119384666D02*
X158572193Y-119337047D01*
X159048384Y-119765619D02*
X159048384Y-119098952D01*
X159048384Y-118765619D02*
X159000765Y-118813238D01*
X159000765Y-118813238D02*
X159048384Y-118860857D01*
X159048384Y-118860857D02*
X159096003Y-118813238D01*
X159096003Y-118813238D02*
X159048384Y-118765619D01*
X159048384Y-118765619D02*
X159048384Y-118860857D01*
X159524574Y-119098952D02*
X159524574Y-119765619D01*
X159524574Y-119194190D02*
X159572193Y-119146571D01*
X159572193Y-119146571D02*
X159667431Y-119098952D01*
X159667431Y-119098952D02*
X159810288Y-119098952D01*
X159810288Y-119098952D02*
X159905526Y-119146571D01*
X159905526Y-119146571D02*
X159953145Y-119241809D01*
X159953145Y-119241809D02*
X159953145Y-119765619D01*
X179054095Y-120273619D02*
X179054095Y-119273619D01*
X179054095Y-119273619D02*
X179292190Y-119273619D01*
X179292190Y-119273619D02*
X179435047Y-119321238D01*
X179435047Y-119321238D02*
X179530285Y-119416476D01*
X179530285Y-119416476D02*
X179577904Y-119511714D01*
X179577904Y-119511714D02*
X179625523Y-119702190D01*
X179625523Y-119702190D02*
X179625523Y-119845047D01*
X179625523Y-119845047D02*
X179577904Y-120035523D01*
X179577904Y-120035523D02*
X179530285Y-120130761D01*
X179530285Y-120130761D02*
X179435047Y-120226000D01*
X179435047Y-120226000D02*
X179292190Y-120273619D01*
X179292190Y-120273619D02*
X179054095Y-120273619D01*
X180435047Y-120226000D02*
X180339809Y-120273619D01*
X180339809Y-120273619D02*
X180149333Y-120273619D01*
X180149333Y-120273619D02*
X180054095Y-120226000D01*
X180054095Y-120226000D02*
X180006476Y-120130761D01*
X180006476Y-120130761D02*
X180006476Y-119749809D01*
X180006476Y-119749809D02*
X180054095Y-119654571D01*
X180054095Y-119654571D02*
X180149333Y-119606952D01*
X180149333Y-119606952D02*
X180339809Y-119606952D01*
X180339809Y-119606952D02*
X180435047Y-119654571D01*
X180435047Y-119654571D02*
X180482666Y-119749809D01*
X180482666Y-119749809D02*
X180482666Y-119845047D01*
X180482666Y-119845047D02*
X180006476Y-119940285D01*
X180863619Y-120226000D02*
X180958857Y-120273619D01*
X180958857Y-120273619D02*
X181149333Y-120273619D01*
X181149333Y-120273619D02*
X181244571Y-120226000D01*
X181244571Y-120226000D02*
X181292190Y-120130761D01*
X181292190Y-120130761D02*
X181292190Y-120083142D01*
X181292190Y-120083142D02*
X181244571Y-119987904D01*
X181244571Y-119987904D02*
X181149333Y-119940285D01*
X181149333Y-119940285D02*
X181006476Y-119940285D01*
X181006476Y-119940285D02*
X180911238Y-119892666D01*
X180911238Y-119892666D02*
X180863619Y-119797428D01*
X180863619Y-119797428D02*
X180863619Y-119749809D01*
X180863619Y-119749809D02*
X180911238Y-119654571D01*
X180911238Y-119654571D02*
X181006476Y-119606952D01*
X181006476Y-119606952D02*
X181149333Y-119606952D01*
X181149333Y-119606952D02*
X181244571Y-119654571D01*
X181720762Y-120273619D02*
X181720762Y-119606952D01*
X181720762Y-119273619D02*
X181673143Y-119321238D01*
X181673143Y-119321238D02*
X181720762Y-119368857D01*
X181720762Y-119368857D02*
X181768381Y-119321238D01*
X181768381Y-119321238D02*
X181720762Y-119273619D01*
X181720762Y-119273619D02*
X181720762Y-119368857D01*
X182625523Y-119606952D02*
X182625523Y-120416476D01*
X182625523Y-120416476D02*
X182577904Y-120511714D01*
X182577904Y-120511714D02*
X182530285Y-120559333D01*
X182530285Y-120559333D02*
X182435047Y-120606952D01*
X182435047Y-120606952D02*
X182292190Y-120606952D01*
X182292190Y-120606952D02*
X182196952Y-120559333D01*
X182625523Y-120226000D02*
X182530285Y-120273619D01*
X182530285Y-120273619D02*
X182339809Y-120273619D01*
X182339809Y-120273619D02*
X182244571Y-120226000D01*
X182244571Y-120226000D02*
X182196952Y-120178380D01*
X182196952Y-120178380D02*
X182149333Y-120083142D01*
X182149333Y-120083142D02*
X182149333Y-119797428D01*
X182149333Y-119797428D02*
X182196952Y-119702190D01*
X182196952Y-119702190D02*
X182244571Y-119654571D01*
X182244571Y-119654571D02*
X182339809Y-119606952D01*
X182339809Y-119606952D02*
X182530285Y-119606952D01*
X182530285Y-119606952D02*
X182625523Y-119654571D01*
X183101714Y-119606952D02*
X183101714Y-120273619D01*
X183101714Y-119702190D02*
X183149333Y-119654571D01*
X183149333Y-119654571D02*
X183244571Y-119606952D01*
X183244571Y-119606952D02*
X183387428Y-119606952D01*
X183387428Y-119606952D02*
X183482666Y-119654571D01*
X183482666Y-119654571D02*
X183530285Y-119749809D01*
X183530285Y-119749809D02*
X183530285Y-120273619D01*
X184768381Y-120273619D02*
X184768381Y-119273619D01*
X184768381Y-119654571D02*
X184863619Y-119606952D01*
X184863619Y-119606952D02*
X185054095Y-119606952D01*
X185054095Y-119606952D02*
X185149333Y-119654571D01*
X185149333Y-119654571D02*
X185196952Y-119702190D01*
X185196952Y-119702190D02*
X185244571Y-119797428D01*
X185244571Y-119797428D02*
X185244571Y-120083142D01*
X185244571Y-120083142D02*
X185196952Y-120178380D01*
X185196952Y-120178380D02*
X185149333Y-120226000D01*
X185149333Y-120226000D02*
X185054095Y-120273619D01*
X185054095Y-120273619D02*
X184863619Y-120273619D01*
X184863619Y-120273619D02*
X184768381Y-120226000D01*
X185577905Y-119606952D02*
X185816000Y-120273619D01*
X186054095Y-119606952D02*
X185816000Y-120273619D01*
X185816000Y-120273619D02*
X185720762Y-120511714D01*
X185720762Y-120511714D02*
X185673143Y-120559333D01*
X185673143Y-120559333D02*
X185577905Y-120606952D01*
X187720762Y-119321238D02*
X187625524Y-119273619D01*
X187625524Y-119273619D02*
X187482667Y-119273619D01*
X187482667Y-119273619D02*
X187339810Y-119321238D01*
X187339810Y-119321238D02*
X187244572Y-119416476D01*
X187244572Y-119416476D02*
X187196953Y-119511714D01*
X187196953Y-119511714D02*
X187149334Y-119702190D01*
X187149334Y-119702190D02*
X187149334Y-119845047D01*
X187149334Y-119845047D02*
X187196953Y-120035523D01*
X187196953Y-120035523D02*
X187244572Y-120130761D01*
X187244572Y-120130761D02*
X187339810Y-120226000D01*
X187339810Y-120226000D02*
X187482667Y-120273619D01*
X187482667Y-120273619D02*
X187577905Y-120273619D01*
X187577905Y-120273619D02*
X187720762Y-120226000D01*
X187720762Y-120226000D02*
X187768381Y-120178380D01*
X187768381Y-120178380D02*
X187768381Y-119845047D01*
X187768381Y-119845047D02*
X187577905Y-119845047D01*
X188196953Y-120273619D02*
X188196953Y-119606952D01*
X188196953Y-119273619D02*
X188149334Y-119321238D01*
X188149334Y-119321238D02*
X188196953Y-119368857D01*
X188196953Y-119368857D02*
X188244572Y-119321238D01*
X188244572Y-119321238D02*
X188196953Y-119273619D01*
X188196953Y-119273619D02*
X188196953Y-119368857D01*
X189101714Y-119606952D02*
X189101714Y-120416476D01*
X189101714Y-120416476D02*
X189054095Y-120511714D01*
X189054095Y-120511714D02*
X189006476Y-120559333D01*
X189006476Y-120559333D02*
X188911238Y-120606952D01*
X188911238Y-120606952D02*
X188768381Y-120606952D01*
X188768381Y-120606952D02*
X188673143Y-120559333D01*
X189101714Y-120226000D02*
X189006476Y-120273619D01*
X189006476Y-120273619D02*
X188816000Y-120273619D01*
X188816000Y-120273619D02*
X188720762Y-120226000D01*
X188720762Y-120226000D02*
X188673143Y-120178380D01*
X188673143Y-120178380D02*
X188625524Y-120083142D01*
X188625524Y-120083142D02*
X188625524Y-119797428D01*
X188625524Y-119797428D02*
X188673143Y-119702190D01*
X188673143Y-119702190D02*
X188720762Y-119654571D01*
X188720762Y-119654571D02*
X188816000Y-119606952D01*
X188816000Y-119606952D02*
X189006476Y-119606952D01*
X189006476Y-119606952D02*
X189101714Y-119654571D01*
X189530286Y-120226000D02*
X189625524Y-120273619D01*
X189625524Y-120273619D02*
X189816000Y-120273619D01*
X189816000Y-120273619D02*
X189911238Y-120226000D01*
X189911238Y-120226000D02*
X189958857Y-120130761D01*
X189958857Y-120130761D02*
X189958857Y-120083142D01*
X189958857Y-120083142D02*
X189911238Y-119987904D01*
X189911238Y-119987904D02*
X189816000Y-119940285D01*
X189816000Y-119940285D02*
X189673143Y-119940285D01*
X189673143Y-119940285D02*
X189577905Y-119892666D01*
X189577905Y-119892666D02*
X189530286Y-119797428D01*
X189530286Y-119797428D02*
X189530286Y-119749809D01*
X189530286Y-119749809D02*
X189577905Y-119654571D01*
X189577905Y-119654571D02*
X189673143Y-119606952D01*
X189673143Y-119606952D02*
X189816000Y-119606952D01*
X189816000Y-119606952D02*
X189911238Y-119654571D01*
X190244572Y-119606952D02*
X190625524Y-119606952D01*
X190387429Y-119273619D02*
X190387429Y-120130761D01*
X190387429Y-120130761D02*
X190435048Y-120226000D01*
X190435048Y-120226000D02*
X190530286Y-120273619D01*
X190530286Y-120273619D02*
X190625524Y-120273619D01*
X191101715Y-120273619D02*
X191006477Y-120226000D01*
X191006477Y-120226000D02*
X190958858Y-120178380D01*
X190958858Y-120178380D02*
X190911239Y-120083142D01*
X190911239Y-120083142D02*
X190911239Y-119797428D01*
X190911239Y-119797428D02*
X190958858Y-119702190D01*
X190958858Y-119702190D02*
X191006477Y-119654571D01*
X191006477Y-119654571D02*
X191101715Y-119606952D01*
X191101715Y-119606952D02*
X191244572Y-119606952D01*
X191244572Y-119606952D02*
X191339810Y-119654571D01*
X191339810Y-119654571D02*
X191387429Y-119702190D01*
X191387429Y-119702190D02*
X191435048Y-119797428D01*
X191435048Y-119797428D02*
X191435048Y-120083142D01*
X191435048Y-120083142D02*
X191387429Y-120178380D01*
X191387429Y-120178380D02*
X191339810Y-120226000D01*
X191339810Y-120226000D02*
X191244572Y-120273619D01*
X191244572Y-120273619D02*
X191101715Y-120273619D01*
X191863620Y-120273619D02*
X191863620Y-119606952D01*
X191863620Y-119797428D02*
X191911239Y-119702190D01*
X191911239Y-119702190D02*
X191958858Y-119654571D01*
X191958858Y-119654571D02*
X192054096Y-119606952D01*
X192054096Y-119606952D02*
X192149334Y-119606952D01*
X192482668Y-120273619D02*
X192482668Y-119606952D01*
X192482668Y-119702190D02*
X192530287Y-119654571D01*
X192530287Y-119654571D02*
X192625525Y-119606952D01*
X192625525Y-119606952D02*
X192768382Y-119606952D01*
X192768382Y-119606952D02*
X192863620Y-119654571D01*
X192863620Y-119654571D02*
X192911239Y-119749809D01*
X192911239Y-119749809D02*
X192911239Y-120273619D01*
X192911239Y-119749809D02*
X192958858Y-119654571D01*
X192958858Y-119654571D02*
X193054096Y-119606952D01*
X193054096Y-119606952D02*
X193196953Y-119606952D01*
X193196953Y-119606952D02*
X193292192Y-119654571D01*
X193292192Y-119654571D02*
X193339811Y-119749809D01*
X193339811Y-119749809D02*
X193339811Y-120273619D01*
%TO.C,POT2*%
X137549143Y-114762619D02*
X137549143Y-113762619D01*
X137549143Y-113762619D02*
X137930095Y-113762619D01*
X137930095Y-113762619D02*
X138025333Y-113810238D01*
X138025333Y-113810238D02*
X138072952Y-113857857D01*
X138072952Y-113857857D02*
X138120571Y-113953095D01*
X138120571Y-113953095D02*
X138120571Y-114095952D01*
X138120571Y-114095952D02*
X138072952Y-114191190D01*
X138072952Y-114191190D02*
X138025333Y-114238809D01*
X138025333Y-114238809D02*
X137930095Y-114286428D01*
X137930095Y-114286428D02*
X137549143Y-114286428D01*
X138739619Y-113762619D02*
X138930095Y-113762619D01*
X138930095Y-113762619D02*
X139025333Y-113810238D01*
X139025333Y-113810238D02*
X139120571Y-113905476D01*
X139120571Y-113905476D02*
X139168190Y-114095952D01*
X139168190Y-114095952D02*
X139168190Y-114429285D01*
X139168190Y-114429285D02*
X139120571Y-114619761D01*
X139120571Y-114619761D02*
X139025333Y-114715000D01*
X139025333Y-114715000D02*
X138930095Y-114762619D01*
X138930095Y-114762619D02*
X138739619Y-114762619D01*
X138739619Y-114762619D02*
X138644381Y-114715000D01*
X138644381Y-114715000D02*
X138549143Y-114619761D01*
X138549143Y-114619761D02*
X138501524Y-114429285D01*
X138501524Y-114429285D02*
X138501524Y-114095952D01*
X138501524Y-114095952D02*
X138549143Y-113905476D01*
X138549143Y-113905476D02*
X138644381Y-113810238D01*
X138644381Y-113810238D02*
X138739619Y-113762619D01*
X139453905Y-113762619D02*
X140025333Y-113762619D01*
X139739619Y-114762619D02*
X139739619Y-113762619D01*
X140311048Y-113857857D02*
X140358667Y-113810238D01*
X140358667Y-113810238D02*
X140453905Y-113762619D01*
X140453905Y-113762619D02*
X140692000Y-113762619D01*
X140692000Y-113762619D02*
X140787238Y-113810238D01*
X140787238Y-113810238D02*
X140834857Y-113857857D01*
X140834857Y-113857857D02*
X140882476Y-113953095D01*
X140882476Y-113953095D02*
X140882476Y-114048333D01*
X140882476Y-114048333D02*
X140834857Y-114191190D01*
X140834857Y-114191190D02*
X140263429Y-114762619D01*
X140263429Y-114762619D02*
X140882476Y-114762619D01*
%TO.C,R6*%
X186650333Y-101681619D02*
X186317000Y-101205428D01*
X186078905Y-101681619D02*
X186078905Y-100681619D01*
X186078905Y-100681619D02*
X186459857Y-100681619D01*
X186459857Y-100681619D02*
X186555095Y-100729238D01*
X186555095Y-100729238D02*
X186602714Y-100776857D01*
X186602714Y-100776857D02*
X186650333Y-100872095D01*
X186650333Y-100872095D02*
X186650333Y-101014952D01*
X186650333Y-101014952D02*
X186602714Y-101110190D01*
X186602714Y-101110190D02*
X186555095Y-101157809D01*
X186555095Y-101157809D02*
X186459857Y-101205428D01*
X186459857Y-101205428D02*
X186078905Y-101205428D01*
X187507476Y-100681619D02*
X187317000Y-100681619D01*
X187317000Y-100681619D02*
X187221762Y-100729238D01*
X187221762Y-100729238D02*
X187174143Y-100776857D01*
X187174143Y-100776857D02*
X187078905Y-100919714D01*
X187078905Y-100919714D02*
X187031286Y-101110190D01*
X187031286Y-101110190D02*
X187031286Y-101491142D01*
X187031286Y-101491142D02*
X187078905Y-101586380D01*
X187078905Y-101586380D02*
X187126524Y-101634000D01*
X187126524Y-101634000D02*
X187221762Y-101681619D01*
X187221762Y-101681619D02*
X187412238Y-101681619D01*
X187412238Y-101681619D02*
X187507476Y-101634000D01*
X187507476Y-101634000D02*
X187555095Y-101586380D01*
X187555095Y-101586380D02*
X187602714Y-101491142D01*
X187602714Y-101491142D02*
X187602714Y-101253047D01*
X187602714Y-101253047D02*
X187555095Y-101157809D01*
X187555095Y-101157809D02*
X187507476Y-101110190D01*
X187507476Y-101110190D02*
X187412238Y-101062571D01*
X187412238Y-101062571D02*
X187221762Y-101062571D01*
X187221762Y-101062571D02*
X187126524Y-101110190D01*
X187126524Y-101110190D02*
X187078905Y-101157809D01*
X187078905Y-101157809D02*
X187031286Y-101253047D01*
%TO.C,C5*%
X134961333Y-104888380D02*
X134913714Y-104936000D01*
X134913714Y-104936000D02*
X134770857Y-104983619D01*
X134770857Y-104983619D02*
X134675619Y-104983619D01*
X134675619Y-104983619D02*
X134532762Y-104936000D01*
X134532762Y-104936000D02*
X134437524Y-104840761D01*
X134437524Y-104840761D02*
X134389905Y-104745523D01*
X134389905Y-104745523D02*
X134342286Y-104555047D01*
X134342286Y-104555047D02*
X134342286Y-104412190D01*
X134342286Y-104412190D02*
X134389905Y-104221714D01*
X134389905Y-104221714D02*
X134437524Y-104126476D01*
X134437524Y-104126476D02*
X134532762Y-104031238D01*
X134532762Y-104031238D02*
X134675619Y-103983619D01*
X134675619Y-103983619D02*
X134770857Y-103983619D01*
X134770857Y-103983619D02*
X134913714Y-104031238D01*
X134913714Y-104031238D02*
X134961333Y-104078857D01*
X135866095Y-103983619D02*
X135389905Y-103983619D01*
X135389905Y-103983619D02*
X135342286Y-104459809D01*
X135342286Y-104459809D02*
X135389905Y-104412190D01*
X135389905Y-104412190D02*
X135485143Y-104364571D01*
X135485143Y-104364571D02*
X135723238Y-104364571D01*
X135723238Y-104364571D02*
X135818476Y-104412190D01*
X135818476Y-104412190D02*
X135866095Y-104459809D01*
X135866095Y-104459809D02*
X135913714Y-104555047D01*
X135913714Y-104555047D02*
X135913714Y-104793142D01*
X135913714Y-104793142D02*
X135866095Y-104888380D01*
X135866095Y-104888380D02*
X135818476Y-104936000D01*
X135818476Y-104936000D02*
X135723238Y-104983619D01*
X135723238Y-104983619D02*
X135485143Y-104983619D01*
X135485143Y-104983619D02*
X135389905Y-104936000D01*
X135389905Y-104936000D02*
X135342286Y-104888380D01*
%TO.C,J17*%
X127206476Y-83282619D02*
X127206476Y-83996904D01*
X127206476Y-83996904D02*
X127158857Y-84139761D01*
X127158857Y-84139761D02*
X127063619Y-84235000D01*
X127063619Y-84235000D02*
X126920762Y-84282619D01*
X126920762Y-84282619D02*
X126825524Y-84282619D01*
X128206476Y-84282619D02*
X127635048Y-84282619D01*
X127920762Y-84282619D02*
X127920762Y-83282619D01*
X127920762Y-83282619D02*
X127825524Y-83425476D01*
X127825524Y-83425476D02*
X127730286Y-83520714D01*
X127730286Y-83520714D02*
X127635048Y-83568333D01*
X128539810Y-83282619D02*
X129206476Y-83282619D01*
X129206476Y-83282619D02*
X128777905Y-84282619D01*
%TO.C,J14*%
X159845476Y-68702619D02*
X159845476Y-69416904D01*
X159845476Y-69416904D02*
X159797857Y-69559761D01*
X159797857Y-69559761D02*
X159702619Y-69655000D01*
X159702619Y-69655000D02*
X159559762Y-69702619D01*
X159559762Y-69702619D02*
X159464524Y-69702619D01*
X160845476Y-69702619D02*
X160274048Y-69702619D01*
X160559762Y-69702619D02*
X160559762Y-68702619D01*
X160559762Y-68702619D02*
X160464524Y-68845476D01*
X160464524Y-68845476D02*
X160369286Y-68940714D01*
X160369286Y-68940714D02*
X160274048Y-68988333D01*
X161702619Y-69035952D02*
X161702619Y-69702619D01*
X161464524Y-68655000D02*
X161226429Y-69369285D01*
X161226429Y-69369285D02*
X161845476Y-69369285D01*
%TO.C,H3*%
X128270095Y-114610619D02*
X128270095Y-113610619D01*
X128270095Y-114086809D02*
X128841523Y-114086809D01*
X128841523Y-114610619D02*
X128841523Y-113610619D01*
X129222476Y-113610619D02*
X129841523Y-113610619D01*
X129841523Y-113610619D02*
X129508190Y-113991571D01*
X129508190Y-113991571D02*
X129651047Y-113991571D01*
X129651047Y-113991571D02*
X129746285Y-114039190D01*
X129746285Y-114039190D02*
X129793904Y-114086809D01*
X129793904Y-114086809D02*
X129841523Y-114182047D01*
X129841523Y-114182047D02*
X129841523Y-114420142D01*
X129841523Y-114420142D02*
X129793904Y-114515380D01*
X129793904Y-114515380D02*
X129746285Y-114563000D01*
X129746285Y-114563000D02*
X129651047Y-114610619D01*
X129651047Y-114610619D02*
X129365333Y-114610619D01*
X129365333Y-114610619D02*
X129270095Y-114563000D01*
X129270095Y-114563000D02*
X129222476Y-114515380D01*
%TO.C,C4*%
X134961333Y-107047380D02*
X134913714Y-107095000D01*
X134913714Y-107095000D02*
X134770857Y-107142619D01*
X134770857Y-107142619D02*
X134675619Y-107142619D01*
X134675619Y-107142619D02*
X134532762Y-107095000D01*
X134532762Y-107095000D02*
X134437524Y-106999761D01*
X134437524Y-106999761D02*
X134389905Y-106904523D01*
X134389905Y-106904523D02*
X134342286Y-106714047D01*
X134342286Y-106714047D02*
X134342286Y-106571190D01*
X134342286Y-106571190D02*
X134389905Y-106380714D01*
X134389905Y-106380714D02*
X134437524Y-106285476D01*
X134437524Y-106285476D02*
X134532762Y-106190238D01*
X134532762Y-106190238D02*
X134675619Y-106142619D01*
X134675619Y-106142619D02*
X134770857Y-106142619D01*
X134770857Y-106142619D02*
X134913714Y-106190238D01*
X134913714Y-106190238D02*
X134961333Y-106237857D01*
X135818476Y-106475952D02*
X135818476Y-107142619D01*
X135580381Y-106095000D02*
X135342286Y-106809285D01*
X135342286Y-106809285D02*
X135961333Y-106809285D01*
%TO.C,R5*%
X189496083Y-92537619D02*
X189162750Y-92061428D01*
X188924655Y-92537619D02*
X188924655Y-91537619D01*
X188924655Y-91537619D02*
X189305607Y-91537619D01*
X189305607Y-91537619D02*
X189400845Y-91585238D01*
X189400845Y-91585238D02*
X189448464Y-91632857D01*
X189448464Y-91632857D02*
X189496083Y-91728095D01*
X189496083Y-91728095D02*
X189496083Y-91870952D01*
X189496083Y-91870952D02*
X189448464Y-91966190D01*
X189448464Y-91966190D02*
X189400845Y-92013809D01*
X189400845Y-92013809D02*
X189305607Y-92061428D01*
X189305607Y-92061428D02*
X188924655Y-92061428D01*
X190400845Y-91537619D02*
X189924655Y-91537619D01*
X189924655Y-91537619D02*
X189877036Y-92013809D01*
X189877036Y-92013809D02*
X189924655Y-91966190D01*
X189924655Y-91966190D02*
X190019893Y-91918571D01*
X190019893Y-91918571D02*
X190257988Y-91918571D01*
X190257988Y-91918571D02*
X190353226Y-91966190D01*
X190353226Y-91966190D02*
X190400845Y-92013809D01*
X190400845Y-92013809D02*
X190448464Y-92109047D01*
X190448464Y-92109047D02*
X190448464Y-92347142D01*
X190448464Y-92347142D02*
X190400845Y-92442380D01*
X190400845Y-92442380D02*
X190353226Y-92490000D01*
X190353226Y-92490000D02*
X190257988Y-92537619D01*
X190257988Y-92537619D02*
X190019893Y-92537619D01*
X190019893Y-92537619D02*
X189924655Y-92490000D01*
X189924655Y-92490000D02*
X189877036Y-92442380D01*
%TO.C,J9*%
X160321666Y-114397619D02*
X160321666Y-115111904D01*
X160321666Y-115111904D02*
X160274047Y-115254761D01*
X160274047Y-115254761D02*
X160178809Y-115350000D01*
X160178809Y-115350000D02*
X160035952Y-115397619D01*
X160035952Y-115397619D02*
X159940714Y-115397619D01*
X160845476Y-115397619D02*
X161035952Y-115397619D01*
X161035952Y-115397619D02*
X161131190Y-115350000D01*
X161131190Y-115350000D02*
X161178809Y-115302380D01*
X161178809Y-115302380D02*
X161274047Y-115159523D01*
X161274047Y-115159523D02*
X161321666Y-114969047D01*
X161321666Y-114969047D02*
X161321666Y-114588095D01*
X161321666Y-114588095D02*
X161274047Y-114492857D01*
X161274047Y-114492857D02*
X161226428Y-114445238D01*
X161226428Y-114445238D02*
X161131190Y-114397619D01*
X161131190Y-114397619D02*
X160940714Y-114397619D01*
X160940714Y-114397619D02*
X160845476Y-114445238D01*
X160845476Y-114445238D02*
X160797857Y-114492857D01*
X160797857Y-114492857D02*
X160750238Y-114588095D01*
X160750238Y-114588095D02*
X160750238Y-114826190D01*
X160750238Y-114826190D02*
X160797857Y-114921428D01*
X160797857Y-114921428D02*
X160845476Y-114969047D01*
X160845476Y-114969047D02*
X160940714Y-115016666D01*
X160940714Y-115016666D02*
X161131190Y-115016666D01*
X161131190Y-115016666D02*
X161226428Y-114969047D01*
X161226428Y-114969047D02*
X161274047Y-114921428D01*
X161274047Y-114921428D02*
X161321666Y-114826190D01*
%TO.C,H2*%
X194310095Y-70566619D02*
X194310095Y-69566619D01*
X194310095Y-70042809D02*
X194881523Y-70042809D01*
X194881523Y-70566619D02*
X194881523Y-69566619D01*
X195310095Y-69661857D02*
X195357714Y-69614238D01*
X195357714Y-69614238D02*
X195452952Y-69566619D01*
X195452952Y-69566619D02*
X195691047Y-69566619D01*
X195691047Y-69566619D02*
X195786285Y-69614238D01*
X195786285Y-69614238D02*
X195833904Y-69661857D01*
X195833904Y-69661857D02*
X195881523Y-69757095D01*
X195881523Y-69757095D02*
X195881523Y-69852333D01*
X195881523Y-69852333D02*
X195833904Y-69995190D01*
X195833904Y-69995190D02*
X195262476Y-70566619D01*
X195262476Y-70566619D02*
X195881523Y-70566619D01*
%TO.C,J12*%
X127714476Y-101468619D02*
X127714476Y-102182904D01*
X127714476Y-102182904D02*
X127666857Y-102325761D01*
X127666857Y-102325761D02*
X127571619Y-102421000D01*
X127571619Y-102421000D02*
X127428762Y-102468619D01*
X127428762Y-102468619D02*
X127333524Y-102468619D01*
X128714476Y-102468619D02*
X128143048Y-102468619D01*
X128428762Y-102468619D02*
X128428762Y-101468619D01*
X128428762Y-101468619D02*
X128333524Y-101611476D01*
X128333524Y-101611476D02*
X128238286Y-101706714D01*
X128238286Y-101706714D02*
X128143048Y-101754333D01*
X129095429Y-101563857D02*
X129143048Y-101516238D01*
X129143048Y-101516238D02*
X129238286Y-101468619D01*
X129238286Y-101468619D02*
X129476381Y-101468619D01*
X129476381Y-101468619D02*
X129571619Y-101516238D01*
X129571619Y-101516238D02*
X129619238Y-101563857D01*
X129619238Y-101563857D02*
X129666857Y-101659095D01*
X129666857Y-101659095D02*
X129666857Y-101754333D01*
X129666857Y-101754333D02*
X129619238Y-101897190D01*
X129619238Y-101897190D02*
X129047810Y-102468619D01*
X129047810Y-102468619D02*
X129666857Y-102468619D01*
%TO.C,H6*%
X163449095Y-100947619D02*
X163449095Y-99947619D01*
X163449095Y-100423809D02*
X164020523Y-100423809D01*
X164020523Y-100947619D02*
X164020523Y-99947619D01*
X164925285Y-99947619D02*
X164734809Y-99947619D01*
X164734809Y-99947619D02*
X164639571Y-99995238D01*
X164639571Y-99995238D02*
X164591952Y-100042857D01*
X164591952Y-100042857D02*
X164496714Y-100185714D01*
X164496714Y-100185714D02*
X164449095Y-100376190D01*
X164449095Y-100376190D02*
X164449095Y-100757142D01*
X164449095Y-100757142D02*
X164496714Y-100852380D01*
X164496714Y-100852380D02*
X164544333Y-100900000D01*
X164544333Y-100900000D02*
X164639571Y-100947619D01*
X164639571Y-100947619D02*
X164830047Y-100947619D01*
X164830047Y-100947619D02*
X164925285Y-100900000D01*
X164925285Y-100900000D02*
X164972904Y-100852380D01*
X164972904Y-100852380D02*
X165020523Y-100757142D01*
X165020523Y-100757142D02*
X165020523Y-100519047D01*
X165020523Y-100519047D02*
X164972904Y-100423809D01*
X164972904Y-100423809D02*
X164925285Y-100376190D01*
X164925285Y-100376190D02*
X164830047Y-100328571D01*
X164830047Y-100328571D02*
X164639571Y-100328571D01*
X164639571Y-100328571D02*
X164544333Y-100376190D01*
X164544333Y-100376190D02*
X164496714Y-100423809D01*
X164496714Y-100423809D02*
X164449095Y-100519047D01*
%TO.C,R13-DNP*%
X134374285Y-90966619D02*
X134040952Y-90490428D01*
X133802857Y-90966619D02*
X133802857Y-89966619D01*
X133802857Y-89966619D02*
X134183809Y-89966619D01*
X134183809Y-89966619D02*
X134279047Y-90014238D01*
X134279047Y-90014238D02*
X134326666Y-90061857D01*
X134326666Y-90061857D02*
X134374285Y-90157095D01*
X134374285Y-90157095D02*
X134374285Y-90299952D01*
X134374285Y-90299952D02*
X134326666Y-90395190D01*
X134326666Y-90395190D02*
X134279047Y-90442809D01*
X134279047Y-90442809D02*
X134183809Y-90490428D01*
X134183809Y-90490428D02*
X133802857Y-90490428D01*
X135326666Y-90966619D02*
X134755238Y-90966619D01*
X135040952Y-90966619D02*
X135040952Y-89966619D01*
X135040952Y-89966619D02*
X134945714Y-90109476D01*
X134945714Y-90109476D02*
X134850476Y-90204714D01*
X134850476Y-90204714D02*
X134755238Y-90252333D01*
X135660000Y-89966619D02*
X136279047Y-89966619D01*
X136279047Y-89966619D02*
X135945714Y-90347571D01*
X135945714Y-90347571D02*
X136088571Y-90347571D01*
X136088571Y-90347571D02*
X136183809Y-90395190D01*
X136183809Y-90395190D02*
X136231428Y-90442809D01*
X136231428Y-90442809D02*
X136279047Y-90538047D01*
X136279047Y-90538047D02*
X136279047Y-90776142D01*
X136279047Y-90776142D02*
X136231428Y-90871380D01*
X136231428Y-90871380D02*
X136183809Y-90919000D01*
X136183809Y-90919000D02*
X136088571Y-90966619D01*
X136088571Y-90966619D02*
X135802857Y-90966619D01*
X135802857Y-90966619D02*
X135707619Y-90919000D01*
X135707619Y-90919000D02*
X135660000Y-90871380D01*
X136707619Y-90585666D02*
X137469524Y-90585666D01*
X137945714Y-90966619D02*
X137945714Y-89966619D01*
X137945714Y-89966619D02*
X138183809Y-89966619D01*
X138183809Y-89966619D02*
X138326666Y-90014238D01*
X138326666Y-90014238D02*
X138421904Y-90109476D01*
X138421904Y-90109476D02*
X138469523Y-90204714D01*
X138469523Y-90204714D02*
X138517142Y-90395190D01*
X138517142Y-90395190D02*
X138517142Y-90538047D01*
X138517142Y-90538047D02*
X138469523Y-90728523D01*
X138469523Y-90728523D02*
X138421904Y-90823761D01*
X138421904Y-90823761D02*
X138326666Y-90919000D01*
X138326666Y-90919000D02*
X138183809Y-90966619D01*
X138183809Y-90966619D02*
X137945714Y-90966619D01*
X138945714Y-90966619D02*
X138945714Y-89966619D01*
X138945714Y-89966619D02*
X139517142Y-90966619D01*
X139517142Y-90966619D02*
X139517142Y-89966619D01*
X139993333Y-90966619D02*
X139993333Y-89966619D01*
X139993333Y-89966619D02*
X140374285Y-89966619D01*
X140374285Y-89966619D02*
X140469523Y-90014238D01*
X140469523Y-90014238D02*
X140517142Y-90061857D01*
X140517142Y-90061857D02*
X140564761Y-90157095D01*
X140564761Y-90157095D02*
X140564761Y-90299952D01*
X140564761Y-90299952D02*
X140517142Y-90395190D01*
X140517142Y-90395190D02*
X140469523Y-90442809D01*
X140469523Y-90442809D02*
X140374285Y-90490428D01*
X140374285Y-90490428D02*
X139993333Y-90490428D01*
%TO.C,R11*%
X148455142Y-108539619D02*
X148121809Y-108063428D01*
X147883714Y-108539619D02*
X147883714Y-107539619D01*
X147883714Y-107539619D02*
X148264666Y-107539619D01*
X148264666Y-107539619D02*
X148359904Y-107587238D01*
X148359904Y-107587238D02*
X148407523Y-107634857D01*
X148407523Y-107634857D02*
X148455142Y-107730095D01*
X148455142Y-107730095D02*
X148455142Y-107872952D01*
X148455142Y-107872952D02*
X148407523Y-107968190D01*
X148407523Y-107968190D02*
X148359904Y-108015809D01*
X148359904Y-108015809D02*
X148264666Y-108063428D01*
X148264666Y-108063428D02*
X147883714Y-108063428D01*
X149407523Y-108539619D02*
X148836095Y-108539619D01*
X149121809Y-108539619D02*
X149121809Y-107539619D01*
X149121809Y-107539619D02*
X149026571Y-107682476D01*
X149026571Y-107682476D02*
X148931333Y-107777714D01*
X148931333Y-107777714D02*
X148836095Y-107825333D01*
X150359904Y-108539619D02*
X149788476Y-108539619D01*
X150074190Y-108539619D02*
X150074190Y-107539619D01*
X150074190Y-107539619D02*
X149978952Y-107682476D01*
X149978952Y-107682476D02*
X149883714Y-107777714D01*
X149883714Y-107777714D02*
X149788476Y-107825333D01*
%TO.C,J1*%
X169846666Y-66543619D02*
X169846666Y-67257904D01*
X169846666Y-67257904D02*
X169799047Y-67400761D01*
X169799047Y-67400761D02*
X169703809Y-67496000D01*
X169703809Y-67496000D02*
X169560952Y-67543619D01*
X169560952Y-67543619D02*
X169465714Y-67543619D01*
X170846666Y-67543619D02*
X170275238Y-67543619D01*
X170560952Y-67543619D02*
X170560952Y-66543619D01*
X170560952Y-66543619D02*
X170465714Y-66686476D01*
X170465714Y-66686476D02*
X170370476Y-66781714D01*
X170370476Y-66781714D02*
X170275238Y-66829333D01*
D11*
%TO.C,J15*%
X132575905Y-75517526D02*
X132575905Y-76424669D01*
X132575905Y-76424669D02*
X132515428Y-76606097D01*
X132515428Y-76606097D02*
X132394476Y-76727050D01*
X132394476Y-76727050D02*
X132213047Y-76787526D01*
X132213047Y-76787526D02*
X132092095Y-76787526D01*
X133845905Y-76787526D02*
X133120190Y-76787526D01*
X133483047Y-76787526D02*
X133483047Y-75517526D01*
X133483047Y-75517526D02*
X133362095Y-75698954D01*
X133362095Y-75698954D02*
X133241143Y-75819907D01*
X133241143Y-75819907D02*
X133120190Y-75880383D01*
X134994952Y-75517526D02*
X134390190Y-75517526D01*
X134390190Y-75517526D02*
X134329714Y-76122288D01*
X134329714Y-76122288D02*
X134390190Y-76061811D01*
X134390190Y-76061811D02*
X134511143Y-76001335D01*
X134511143Y-76001335D02*
X134813524Y-76001335D01*
X134813524Y-76001335D02*
X134934476Y-76061811D01*
X134934476Y-76061811D02*
X134994952Y-76122288D01*
X134994952Y-76122288D02*
X135055429Y-76243240D01*
X135055429Y-76243240D02*
X135055429Y-76545621D01*
X135055429Y-76545621D02*
X134994952Y-76666573D01*
X134994952Y-76666573D02*
X134934476Y-76727050D01*
X134934476Y-76727050D02*
X134813524Y-76787526D01*
X134813524Y-76787526D02*
X134511143Y-76787526D01*
X134511143Y-76787526D02*
X134390190Y-76727050D01*
X134390190Y-76727050D02*
X134329714Y-76666573D01*
D10*
%TO.C,R12*%
X141089142Y-100110619D02*
X140755809Y-99634428D01*
X140517714Y-100110619D02*
X140517714Y-99110619D01*
X140517714Y-99110619D02*
X140898666Y-99110619D01*
X140898666Y-99110619D02*
X140993904Y-99158238D01*
X140993904Y-99158238D02*
X141041523Y-99205857D01*
X141041523Y-99205857D02*
X141089142Y-99301095D01*
X141089142Y-99301095D02*
X141089142Y-99443952D01*
X141089142Y-99443952D02*
X141041523Y-99539190D01*
X141041523Y-99539190D02*
X140993904Y-99586809D01*
X140993904Y-99586809D02*
X140898666Y-99634428D01*
X140898666Y-99634428D02*
X140517714Y-99634428D01*
X142041523Y-100110619D02*
X141470095Y-100110619D01*
X141755809Y-100110619D02*
X141755809Y-99110619D01*
X141755809Y-99110619D02*
X141660571Y-99253476D01*
X141660571Y-99253476D02*
X141565333Y-99348714D01*
X141565333Y-99348714D02*
X141470095Y-99396333D01*
X142422476Y-99205857D02*
X142470095Y-99158238D01*
X142470095Y-99158238D02*
X142565333Y-99110619D01*
X142565333Y-99110619D02*
X142803428Y-99110619D01*
X142803428Y-99110619D02*
X142898666Y-99158238D01*
X142898666Y-99158238D02*
X142946285Y-99205857D01*
X142946285Y-99205857D02*
X142993904Y-99301095D01*
X142993904Y-99301095D02*
X142993904Y-99396333D01*
X142993904Y-99396333D02*
X142946285Y-99539190D01*
X142946285Y-99539190D02*
X142374857Y-100110619D01*
X142374857Y-100110619D02*
X142993904Y-100110619D01*
%TO.C,C3*%
X146273380Y-91606666D02*
X146321000Y-91654285D01*
X146321000Y-91654285D02*
X146368619Y-91797142D01*
X146368619Y-91797142D02*
X146368619Y-91892380D01*
X146368619Y-91892380D02*
X146321000Y-92035237D01*
X146321000Y-92035237D02*
X146225761Y-92130475D01*
X146225761Y-92130475D02*
X146130523Y-92178094D01*
X146130523Y-92178094D02*
X145940047Y-92225713D01*
X145940047Y-92225713D02*
X145797190Y-92225713D01*
X145797190Y-92225713D02*
X145606714Y-92178094D01*
X145606714Y-92178094D02*
X145511476Y-92130475D01*
X145511476Y-92130475D02*
X145416238Y-92035237D01*
X145416238Y-92035237D02*
X145368619Y-91892380D01*
X145368619Y-91892380D02*
X145368619Y-91797142D01*
X145368619Y-91797142D02*
X145416238Y-91654285D01*
X145416238Y-91654285D02*
X145463857Y-91606666D01*
X145368619Y-91273332D02*
X145368619Y-90654285D01*
X145368619Y-90654285D02*
X145749571Y-90987618D01*
X145749571Y-90987618D02*
X145749571Y-90844761D01*
X145749571Y-90844761D02*
X145797190Y-90749523D01*
X145797190Y-90749523D02*
X145844809Y-90701904D01*
X145844809Y-90701904D02*
X145940047Y-90654285D01*
X145940047Y-90654285D02*
X146178142Y-90654285D01*
X146178142Y-90654285D02*
X146273380Y-90701904D01*
X146273380Y-90701904D02*
X146321000Y-90749523D01*
X146321000Y-90749523D02*
X146368619Y-90844761D01*
X146368619Y-90844761D02*
X146368619Y-91130475D01*
X146368619Y-91130475D02*
X146321000Y-91225713D01*
X146321000Y-91225713D02*
X146273380Y-91273332D01*
%TO.C,J8*%
X169846666Y-110231619D02*
X169846666Y-110945904D01*
X169846666Y-110945904D02*
X169799047Y-111088761D01*
X169799047Y-111088761D02*
X169703809Y-111184000D01*
X169703809Y-111184000D02*
X169560952Y-111231619D01*
X169560952Y-111231619D02*
X169465714Y-111231619D01*
X170465714Y-110660190D02*
X170370476Y-110612571D01*
X170370476Y-110612571D02*
X170322857Y-110564952D01*
X170322857Y-110564952D02*
X170275238Y-110469714D01*
X170275238Y-110469714D02*
X170275238Y-110422095D01*
X170275238Y-110422095D02*
X170322857Y-110326857D01*
X170322857Y-110326857D02*
X170370476Y-110279238D01*
X170370476Y-110279238D02*
X170465714Y-110231619D01*
X170465714Y-110231619D02*
X170656190Y-110231619D01*
X170656190Y-110231619D02*
X170751428Y-110279238D01*
X170751428Y-110279238D02*
X170799047Y-110326857D01*
X170799047Y-110326857D02*
X170846666Y-110422095D01*
X170846666Y-110422095D02*
X170846666Y-110469714D01*
X170846666Y-110469714D02*
X170799047Y-110564952D01*
X170799047Y-110564952D02*
X170751428Y-110612571D01*
X170751428Y-110612571D02*
X170656190Y-110660190D01*
X170656190Y-110660190D02*
X170465714Y-110660190D01*
X170465714Y-110660190D02*
X170370476Y-110707809D01*
X170370476Y-110707809D02*
X170322857Y-110755428D01*
X170322857Y-110755428D02*
X170275238Y-110850666D01*
X170275238Y-110850666D02*
X170275238Y-111041142D01*
X170275238Y-111041142D02*
X170322857Y-111136380D01*
X170322857Y-111136380D02*
X170370476Y-111184000D01*
X170370476Y-111184000D02*
X170465714Y-111231619D01*
X170465714Y-111231619D02*
X170656190Y-111231619D01*
X170656190Y-111231619D02*
X170751428Y-111184000D01*
X170751428Y-111184000D02*
X170799047Y-111136380D01*
X170799047Y-111136380D02*
X170846666Y-111041142D01*
X170846666Y-111041142D02*
X170846666Y-110850666D01*
X170846666Y-110850666D02*
X170799047Y-110755428D01*
X170799047Y-110755428D02*
X170751428Y-110707809D01*
X170751428Y-110707809D02*
X170656190Y-110660190D01*
%TO.C,H5*%
X175447105Y-76158609D02*
X175447105Y-75158609D01*
X175447105Y-75634799D02*
X176018533Y-75634799D01*
X176018533Y-76158609D02*
X176018533Y-75158609D01*
X176970914Y-75158609D02*
X176494724Y-75158609D01*
X176494724Y-75158609D02*
X176447105Y-75634799D01*
X176447105Y-75634799D02*
X176494724Y-75587180D01*
X176494724Y-75587180D02*
X176589962Y-75539561D01*
X176589962Y-75539561D02*
X176828057Y-75539561D01*
X176828057Y-75539561D02*
X176923295Y-75587180D01*
X176923295Y-75587180D02*
X176970914Y-75634799D01*
X176970914Y-75634799D02*
X177018533Y-75730037D01*
X177018533Y-75730037D02*
X177018533Y-75968132D01*
X177018533Y-75968132D02*
X176970914Y-76063370D01*
X176970914Y-76063370D02*
X176923295Y-76110990D01*
X176923295Y-76110990D02*
X176828057Y-76158609D01*
X176828057Y-76158609D02*
X176589962Y-76158609D01*
X176589962Y-76158609D02*
X176494724Y-76110990D01*
X176494724Y-76110990D02*
X176447105Y-76063370D01*
%TO.C,R7*%
X182736833Y-108158619D02*
X182403500Y-107682428D01*
X182165405Y-108158619D02*
X182165405Y-107158619D01*
X182165405Y-107158619D02*
X182546357Y-107158619D01*
X182546357Y-107158619D02*
X182641595Y-107206238D01*
X182641595Y-107206238D02*
X182689214Y-107253857D01*
X182689214Y-107253857D02*
X182736833Y-107349095D01*
X182736833Y-107349095D02*
X182736833Y-107491952D01*
X182736833Y-107491952D02*
X182689214Y-107587190D01*
X182689214Y-107587190D02*
X182641595Y-107634809D01*
X182641595Y-107634809D02*
X182546357Y-107682428D01*
X182546357Y-107682428D02*
X182165405Y-107682428D01*
X183070167Y-107158619D02*
X183736833Y-107158619D01*
X183736833Y-107158619D02*
X183308262Y-108158619D01*
%TO.C,J3*%
X186991666Y-74798619D02*
X186991666Y-75512904D01*
X186991666Y-75512904D02*
X186944047Y-75655761D01*
X186944047Y-75655761D02*
X186848809Y-75751000D01*
X186848809Y-75751000D02*
X186705952Y-75798619D01*
X186705952Y-75798619D02*
X186610714Y-75798619D01*
X187372619Y-74798619D02*
X187991666Y-74798619D01*
X187991666Y-74798619D02*
X187658333Y-75179571D01*
X187658333Y-75179571D02*
X187801190Y-75179571D01*
X187801190Y-75179571D02*
X187896428Y-75227190D01*
X187896428Y-75227190D02*
X187944047Y-75274809D01*
X187944047Y-75274809D02*
X187991666Y-75370047D01*
X187991666Y-75370047D02*
X187991666Y-75608142D01*
X187991666Y-75608142D02*
X187944047Y-75703380D01*
X187944047Y-75703380D02*
X187896428Y-75751000D01*
X187896428Y-75751000D02*
X187801190Y-75798619D01*
X187801190Y-75798619D02*
X187515476Y-75798619D01*
X187515476Y-75798619D02*
X187420238Y-75751000D01*
X187420238Y-75751000D02*
X187372619Y-75703380D01*
%TO.C,J5*%
X194865666Y-96363619D02*
X194865666Y-97077904D01*
X194865666Y-97077904D02*
X194818047Y-97220761D01*
X194818047Y-97220761D02*
X194722809Y-97316000D01*
X194722809Y-97316000D02*
X194579952Y-97363619D01*
X194579952Y-97363619D02*
X194484714Y-97363619D01*
X195818047Y-96363619D02*
X195341857Y-96363619D01*
X195341857Y-96363619D02*
X195294238Y-96839809D01*
X195294238Y-96839809D02*
X195341857Y-96792190D01*
X195341857Y-96792190D02*
X195437095Y-96744571D01*
X195437095Y-96744571D02*
X195675190Y-96744571D01*
X195675190Y-96744571D02*
X195770428Y-96792190D01*
X195770428Y-96792190D02*
X195818047Y-96839809D01*
X195818047Y-96839809D02*
X195865666Y-96935047D01*
X195865666Y-96935047D02*
X195865666Y-97173142D01*
X195865666Y-97173142D02*
X195818047Y-97268380D01*
X195818047Y-97268380D02*
X195770428Y-97316000D01*
X195770428Y-97316000D02*
X195675190Y-97363619D01*
X195675190Y-97363619D02*
X195437095Y-97363619D01*
X195437095Y-97363619D02*
X195341857Y-97316000D01*
X195341857Y-97316000D02*
X195294238Y-97268380D01*
%TO.C,J4*%
X191817666Y-83536619D02*
X191817666Y-84250904D01*
X191817666Y-84250904D02*
X191770047Y-84393761D01*
X191770047Y-84393761D02*
X191674809Y-84489000D01*
X191674809Y-84489000D02*
X191531952Y-84536619D01*
X191531952Y-84536619D02*
X191436714Y-84536619D01*
X192722428Y-83869952D02*
X192722428Y-84536619D01*
X192484333Y-83489000D02*
X192246238Y-84203285D01*
X192246238Y-84203285D02*
X192865285Y-84203285D01*
%TO.C,J6*%
X190420666Y-104999619D02*
X190420666Y-105713904D01*
X190420666Y-105713904D02*
X190373047Y-105856761D01*
X190373047Y-105856761D02*
X190277809Y-105952000D01*
X190277809Y-105952000D02*
X190134952Y-105999619D01*
X190134952Y-105999619D02*
X190039714Y-105999619D01*
X191325428Y-104999619D02*
X191134952Y-104999619D01*
X191134952Y-104999619D02*
X191039714Y-105047238D01*
X191039714Y-105047238D02*
X190992095Y-105094857D01*
X190992095Y-105094857D02*
X190896857Y-105237714D01*
X190896857Y-105237714D02*
X190849238Y-105428190D01*
X190849238Y-105428190D02*
X190849238Y-105809142D01*
X190849238Y-105809142D02*
X190896857Y-105904380D01*
X190896857Y-105904380D02*
X190944476Y-105952000D01*
X190944476Y-105952000D02*
X191039714Y-105999619D01*
X191039714Y-105999619D02*
X191230190Y-105999619D01*
X191230190Y-105999619D02*
X191325428Y-105952000D01*
X191325428Y-105952000D02*
X191373047Y-105904380D01*
X191373047Y-105904380D02*
X191420666Y-105809142D01*
X191420666Y-105809142D02*
X191420666Y-105571047D01*
X191420666Y-105571047D02*
X191373047Y-105475809D01*
X191373047Y-105475809D02*
X191325428Y-105428190D01*
X191325428Y-105428190D02*
X191230190Y-105380571D01*
X191230190Y-105380571D02*
X191039714Y-105380571D01*
X191039714Y-105380571D02*
X190944476Y-105428190D01*
X190944476Y-105428190D02*
X190896857Y-105475809D01*
X190896857Y-105475809D02*
X190849238Y-105571047D01*
%TO.C,C1*%
X156932333Y-108190380D02*
X156884714Y-108238000D01*
X156884714Y-108238000D02*
X156741857Y-108285619D01*
X156741857Y-108285619D02*
X156646619Y-108285619D01*
X156646619Y-108285619D02*
X156503762Y-108238000D01*
X156503762Y-108238000D02*
X156408524Y-108142761D01*
X156408524Y-108142761D02*
X156360905Y-108047523D01*
X156360905Y-108047523D02*
X156313286Y-107857047D01*
X156313286Y-107857047D02*
X156313286Y-107714190D01*
X156313286Y-107714190D02*
X156360905Y-107523714D01*
X156360905Y-107523714D02*
X156408524Y-107428476D01*
X156408524Y-107428476D02*
X156503762Y-107333238D01*
X156503762Y-107333238D02*
X156646619Y-107285619D01*
X156646619Y-107285619D02*
X156741857Y-107285619D01*
X156741857Y-107285619D02*
X156884714Y-107333238D01*
X156884714Y-107333238D02*
X156932333Y-107380857D01*
X157884714Y-108285619D02*
X157313286Y-108285619D01*
X157599000Y-108285619D02*
X157599000Y-107285619D01*
X157599000Y-107285619D02*
X157503762Y-107428476D01*
X157503762Y-107428476D02*
X157408524Y-107523714D01*
X157408524Y-107523714D02*
X157313286Y-107571333D01*
%TO.C,C2*%
X149390333Y-114667380D02*
X149342714Y-114715000D01*
X149342714Y-114715000D02*
X149199857Y-114762619D01*
X149199857Y-114762619D02*
X149104619Y-114762619D01*
X149104619Y-114762619D02*
X148961762Y-114715000D01*
X148961762Y-114715000D02*
X148866524Y-114619761D01*
X148866524Y-114619761D02*
X148818905Y-114524523D01*
X148818905Y-114524523D02*
X148771286Y-114334047D01*
X148771286Y-114334047D02*
X148771286Y-114191190D01*
X148771286Y-114191190D02*
X148818905Y-114000714D01*
X148818905Y-114000714D02*
X148866524Y-113905476D01*
X148866524Y-113905476D02*
X148961762Y-113810238D01*
X148961762Y-113810238D02*
X149104619Y-113762619D01*
X149104619Y-113762619D02*
X149199857Y-113762619D01*
X149199857Y-113762619D02*
X149342714Y-113810238D01*
X149342714Y-113810238D02*
X149390333Y-113857857D01*
X149771286Y-113857857D02*
X149818905Y-113810238D01*
X149818905Y-113810238D02*
X149914143Y-113762619D01*
X149914143Y-113762619D02*
X150152238Y-113762619D01*
X150152238Y-113762619D02*
X150247476Y-113810238D01*
X150247476Y-113810238D02*
X150295095Y-113857857D01*
X150295095Y-113857857D02*
X150342714Y-113953095D01*
X150342714Y-113953095D02*
X150342714Y-114048333D01*
X150342714Y-114048333D02*
X150295095Y-114191190D01*
X150295095Y-114191190D02*
X149723667Y-114762619D01*
X149723667Y-114762619D02*
X150342714Y-114762619D01*
%TO.C,R10*%
X155313142Y-114254619D02*
X154979809Y-113778428D01*
X154741714Y-114254619D02*
X154741714Y-113254619D01*
X154741714Y-113254619D02*
X155122666Y-113254619D01*
X155122666Y-113254619D02*
X155217904Y-113302238D01*
X155217904Y-113302238D02*
X155265523Y-113349857D01*
X155265523Y-113349857D02*
X155313142Y-113445095D01*
X155313142Y-113445095D02*
X155313142Y-113587952D01*
X155313142Y-113587952D02*
X155265523Y-113683190D01*
X155265523Y-113683190D02*
X155217904Y-113730809D01*
X155217904Y-113730809D02*
X155122666Y-113778428D01*
X155122666Y-113778428D02*
X154741714Y-113778428D01*
X156265523Y-114254619D02*
X155694095Y-114254619D01*
X155979809Y-114254619D02*
X155979809Y-113254619D01*
X155979809Y-113254619D02*
X155884571Y-113397476D01*
X155884571Y-113397476D02*
X155789333Y-113492714D01*
X155789333Y-113492714D02*
X155694095Y-113540333D01*
X156884571Y-113254619D02*
X156979809Y-113254619D01*
X156979809Y-113254619D02*
X157075047Y-113302238D01*
X157075047Y-113302238D02*
X157122666Y-113349857D01*
X157122666Y-113349857D02*
X157170285Y-113445095D01*
X157170285Y-113445095D02*
X157217904Y-113635571D01*
X157217904Y-113635571D02*
X157217904Y-113873666D01*
X157217904Y-113873666D02*
X157170285Y-114064142D01*
X157170285Y-114064142D02*
X157122666Y-114159380D01*
X157122666Y-114159380D02*
X157075047Y-114207000D01*
X157075047Y-114207000D02*
X156979809Y-114254619D01*
X156979809Y-114254619D02*
X156884571Y-114254619D01*
X156884571Y-114254619D02*
X156789333Y-114207000D01*
X156789333Y-114207000D02*
X156741714Y-114159380D01*
X156741714Y-114159380D02*
X156694095Y-114064142D01*
X156694095Y-114064142D02*
X156646476Y-113873666D01*
X156646476Y-113873666D02*
X156646476Y-113635571D01*
X156646476Y-113635571D02*
X156694095Y-113445095D01*
X156694095Y-113445095D02*
X156741714Y-113349857D01*
X156741714Y-113349857D02*
X156789333Y-113302238D01*
X156789333Y-113302238D02*
X156884571Y-113254619D01*
%TO.C,H4*%
X194587821Y-114736619D02*
X194587821Y-113736619D01*
X194587821Y-114212809D02*
X195159249Y-114212809D01*
X195159249Y-114736619D02*
X195159249Y-113736619D01*
X196064011Y-114069952D02*
X196064011Y-114736619D01*
X195825916Y-113689000D02*
X195587821Y-114403285D01*
X195587821Y-114403285D02*
X196206868Y-114403285D01*
%TO.C,J11*%
X148034476Y-93213619D02*
X148034476Y-93927904D01*
X148034476Y-93927904D02*
X147986857Y-94070761D01*
X147986857Y-94070761D02*
X147891619Y-94166000D01*
X147891619Y-94166000D02*
X147748762Y-94213619D01*
X147748762Y-94213619D02*
X147653524Y-94213619D01*
X149034476Y-94213619D02*
X148463048Y-94213619D01*
X148748762Y-94213619D02*
X148748762Y-93213619D01*
X148748762Y-93213619D02*
X148653524Y-93356476D01*
X148653524Y-93356476D02*
X148558286Y-93451714D01*
X148558286Y-93451714D02*
X148463048Y-93499333D01*
X149986857Y-94213619D02*
X149415429Y-94213619D01*
X149701143Y-94213619D02*
X149701143Y-93213619D01*
X149701143Y-93213619D02*
X149605905Y-93356476D01*
X149605905Y-93356476D02*
X149510667Y-93451714D01*
X149510667Y-93451714D02*
X149415429Y-93499333D01*
%TO.C,R9*%
X165187333Y-111079619D02*
X164854000Y-110603428D01*
X164615905Y-111079619D02*
X164615905Y-110079619D01*
X164615905Y-110079619D02*
X164996857Y-110079619D01*
X164996857Y-110079619D02*
X165092095Y-110127238D01*
X165092095Y-110127238D02*
X165139714Y-110174857D01*
X165139714Y-110174857D02*
X165187333Y-110270095D01*
X165187333Y-110270095D02*
X165187333Y-110412952D01*
X165187333Y-110412952D02*
X165139714Y-110508190D01*
X165139714Y-110508190D02*
X165092095Y-110555809D01*
X165092095Y-110555809D02*
X164996857Y-110603428D01*
X164996857Y-110603428D02*
X164615905Y-110603428D01*
X165663524Y-111079619D02*
X165854000Y-111079619D01*
X165854000Y-111079619D02*
X165949238Y-111032000D01*
X165949238Y-111032000D02*
X165996857Y-110984380D01*
X165996857Y-110984380D02*
X166092095Y-110841523D01*
X166092095Y-110841523D02*
X166139714Y-110651047D01*
X166139714Y-110651047D02*
X166139714Y-110270095D01*
X166139714Y-110270095D02*
X166092095Y-110174857D01*
X166092095Y-110174857D02*
X166044476Y-110127238D01*
X166044476Y-110127238D02*
X165949238Y-110079619D01*
X165949238Y-110079619D02*
X165758762Y-110079619D01*
X165758762Y-110079619D02*
X165663524Y-110127238D01*
X165663524Y-110127238D02*
X165615905Y-110174857D01*
X165615905Y-110174857D02*
X165568286Y-110270095D01*
X165568286Y-110270095D02*
X165568286Y-110508190D01*
X165568286Y-110508190D02*
X165615905Y-110603428D01*
X165615905Y-110603428D02*
X165663524Y-110651047D01*
X165663524Y-110651047D02*
X165758762Y-110698666D01*
X165758762Y-110698666D02*
X165949238Y-110698666D01*
X165949238Y-110698666D02*
X166044476Y-110651047D01*
X166044476Y-110651047D02*
X166092095Y-110603428D01*
X166092095Y-110603428D02*
X166139714Y-110508190D01*
%TO.C,POT1*%
X141867143Y-69550619D02*
X141867143Y-68550619D01*
X141867143Y-68550619D02*
X142248095Y-68550619D01*
X142248095Y-68550619D02*
X142343333Y-68598238D01*
X142343333Y-68598238D02*
X142390952Y-68645857D01*
X142390952Y-68645857D02*
X142438571Y-68741095D01*
X142438571Y-68741095D02*
X142438571Y-68883952D01*
X142438571Y-68883952D02*
X142390952Y-68979190D01*
X142390952Y-68979190D02*
X142343333Y-69026809D01*
X142343333Y-69026809D02*
X142248095Y-69074428D01*
X142248095Y-69074428D02*
X141867143Y-69074428D01*
X143057619Y-68550619D02*
X143248095Y-68550619D01*
X143248095Y-68550619D02*
X143343333Y-68598238D01*
X143343333Y-68598238D02*
X143438571Y-68693476D01*
X143438571Y-68693476D02*
X143486190Y-68883952D01*
X143486190Y-68883952D02*
X143486190Y-69217285D01*
X143486190Y-69217285D02*
X143438571Y-69407761D01*
X143438571Y-69407761D02*
X143343333Y-69503000D01*
X143343333Y-69503000D02*
X143248095Y-69550619D01*
X143248095Y-69550619D02*
X143057619Y-69550619D01*
X143057619Y-69550619D02*
X142962381Y-69503000D01*
X142962381Y-69503000D02*
X142867143Y-69407761D01*
X142867143Y-69407761D02*
X142819524Y-69217285D01*
X142819524Y-69217285D02*
X142819524Y-68883952D01*
X142819524Y-68883952D02*
X142867143Y-68693476D01*
X142867143Y-68693476D02*
X142962381Y-68598238D01*
X142962381Y-68598238D02*
X143057619Y-68550619D01*
X143771905Y-68550619D02*
X144343333Y-68550619D01*
X144057619Y-69550619D02*
X144057619Y-68550619D01*
X145200476Y-69550619D02*
X144629048Y-69550619D01*
X144914762Y-69550619D02*
X144914762Y-68550619D01*
X144914762Y-68550619D02*
X144819524Y-68693476D01*
X144819524Y-68693476D02*
X144724286Y-68788714D01*
X144724286Y-68788714D02*
X144629048Y-68836333D01*
%TO.C,R3*%
X182938119Y-78271666D02*
X182461928Y-78604999D01*
X182938119Y-78843094D02*
X181938119Y-78843094D01*
X181938119Y-78843094D02*
X181938119Y-78462142D01*
X181938119Y-78462142D02*
X181985738Y-78366904D01*
X181985738Y-78366904D02*
X182033357Y-78319285D01*
X182033357Y-78319285D02*
X182128595Y-78271666D01*
X182128595Y-78271666D02*
X182271452Y-78271666D01*
X182271452Y-78271666D02*
X182366690Y-78319285D01*
X182366690Y-78319285D02*
X182414309Y-78366904D01*
X182414309Y-78366904D02*
X182461928Y-78462142D01*
X182461928Y-78462142D02*
X182461928Y-78843094D01*
X181938119Y-77938332D02*
X181938119Y-77319285D01*
X181938119Y-77319285D02*
X182319071Y-77652618D01*
X182319071Y-77652618D02*
X182319071Y-77509761D01*
X182319071Y-77509761D02*
X182366690Y-77414523D01*
X182366690Y-77414523D02*
X182414309Y-77366904D01*
X182414309Y-77366904D02*
X182509547Y-77319285D01*
X182509547Y-77319285D02*
X182747642Y-77319285D01*
X182747642Y-77319285D02*
X182842880Y-77366904D01*
X182842880Y-77366904D02*
X182890500Y-77414523D01*
X182890500Y-77414523D02*
X182938119Y-77509761D01*
X182938119Y-77509761D02*
X182938119Y-77795475D01*
X182938119Y-77795475D02*
X182890500Y-77890713D01*
X182890500Y-77890713D02*
X182842880Y-77938332D01*
%TO.C,J13*%
X152225476Y-74798619D02*
X152225476Y-75512904D01*
X152225476Y-75512904D02*
X152177857Y-75655761D01*
X152177857Y-75655761D02*
X152082619Y-75751000D01*
X152082619Y-75751000D02*
X151939762Y-75798619D01*
X151939762Y-75798619D02*
X151844524Y-75798619D01*
X153225476Y-75798619D02*
X152654048Y-75798619D01*
X152939762Y-75798619D02*
X152939762Y-74798619D01*
X152939762Y-74798619D02*
X152844524Y-74941476D01*
X152844524Y-74941476D02*
X152749286Y-75036714D01*
X152749286Y-75036714D02*
X152654048Y-75084333D01*
X153558810Y-74798619D02*
X154177857Y-74798619D01*
X154177857Y-74798619D02*
X153844524Y-75179571D01*
X153844524Y-75179571D02*
X153987381Y-75179571D01*
X153987381Y-75179571D02*
X154082619Y-75227190D01*
X154082619Y-75227190D02*
X154130238Y-75274809D01*
X154130238Y-75274809D02*
X154177857Y-75370047D01*
X154177857Y-75370047D02*
X154177857Y-75608142D01*
X154177857Y-75608142D02*
X154130238Y-75703380D01*
X154130238Y-75703380D02*
X154082619Y-75751000D01*
X154082619Y-75751000D02*
X153987381Y-75798619D01*
X153987381Y-75798619D02*
X153701667Y-75798619D01*
X153701667Y-75798619D02*
X153606429Y-75751000D01*
X153606429Y-75751000D02*
X153558810Y-75703380D01*
%TO.C,J7*%
X179371666Y-108072619D02*
X179371666Y-108786904D01*
X179371666Y-108786904D02*
X179324047Y-108929761D01*
X179324047Y-108929761D02*
X179228809Y-109025000D01*
X179228809Y-109025000D02*
X179085952Y-109072619D01*
X179085952Y-109072619D02*
X178990714Y-109072619D01*
X179752619Y-108072619D02*
X180419285Y-108072619D01*
X180419285Y-108072619D02*
X179990714Y-109072619D01*
%TO.C,R8*%
X174712333Y-111588619D02*
X174379000Y-111112428D01*
X174140905Y-111588619D02*
X174140905Y-110588619D01*
X174140905Y-110588619D02*
X174521857Y-110588619D01*
X174521857Y-110588619D02*
X174617095Y-110636238D01*
X174617095Y-110636238D02*
X174664714Y-110683857D01*
X174664714Y-110683857D02*
X174712333Y-110779095D01*
X174712333Y-110779095D02*
X174712333Y-110921952D01*
X174712333Y-110921952D02*
X174664714Y-111017190D01*
X174664714Y-111017190D02*
X174617095Y-111064809D01*
X174617095Y-111064809D02*
X174521857Y-111112428D01*
X174521857Y-111112428D02*
X174140905Y-111112428D01*
X175283762Y-111017190D02*
X175188524Y-110969571D01*
X175188524Y-110969571D02*
X175140905Y-110921952D01*
X175140905Y-110921952D02*
X175093286Y-110826714D01*
X175093286Y-110826714D02*
X175093286Y-110779095D01*
X175093286Y-110779095D02*
X175140905Y-110683857D01*
X175140905Y-110683857D02*
X175188524Y-110636238D01*
X175188524Y-110636238D02*
X175283762Y-110588619D01*
X175283762Y-110588619D02*
X175474238Y-110588619D01*
X175474238Y-110588619D02*
X175569476Y-110636238D01*
X175569476Y-110636238D02*
X175617095Y-110683857D01*
X175617095Y-110683857D02*
X175664714Y-110779095D01*
X175664714Y-110779095D02*
X175664714Y-110826714D01*
X175664714Y-110826714D02*
X175617095Y-110921952D01*
X175617095Y-110921952D02*
X175569476Y-110969571D01*
X175569476Y-110969571D02*
X175474238Y-111017190D01*
X175474238Y-111017190D02*
X175283762Y-111017190D01*
X175283762Y-111017190D02*
X175188524Y-111064809D01*
X175188524Y-111064809D02*
X175140905Y-111112428D01*
X175140905Y-111112428D02*
X175093286Y-111207666D01*
X175093286Y-111207666D02*
X175093286Y-111398142D01*
X175093286Y-111398142D02*
X175140905Y-111493380D01*
X175140905Y-111493380D02*
X175188524Y-111541000D01*
X175188524Y-111541000D02*
X175283762Y-111588619D01*
X175283762Y-111588619D02*
X175474238Y-111588619D01*
X175474238Y-111588619D02*
X175569476Y-111541000D01*
X175569476Y-111541000D02*
X175617095Y-111493380D01*
X175617095Y-111493380D02*
X175664714Y-111398142D01*
X175664714Y-111398142D02*
X175664714Y-111207666D01*
X175664714Y-111207666D02*
X175617095Y-111112428D01*
X175617095Y-111112428D02*
X175569476Y-111064809D01*
X175569476Y-111064809D02*
X175474238Y-111017190D01*
%TO.C,R2*%
X174688833Y-73105619D02*
X174355500Y-72629428D01*
X174117405Y-73105619D02*
X174117405Y-72105619D01*
X174117405Y-72105619D02*
X174498357Y-72105619D01*
X174498357Y-72105619D02*
X174593595Y-72153238D01*
X174593595Y-72153238D02*
X174641214Y-72200857D01*
X174641214Y-72200857D02*
X174688833Y-72296095D01*
X174688833Y-72296095D02*
X174688833Y-72438952D01*
X174688833Y-72438952D02*
X174641214Y-72534190D01*
X174641214Y-72534190D02*
X174593595Y-72581809D01*
X174593595Y-72581809D02*
X174498357Y-72629428D01*
X174498357Y-72629428D02*
X174117405Y-72629428D01*
X175069786Y-72200857D02*
X175117405Y-72153238D01*
X175117405Y-72153238D02*
X175212643Y-72105619D01*
X175212643Y-72105619D02*
X175450738Y-72105619D01*
X175450738Y-72105619D02*
X175545976Y-72153238D01*
X175545976Y-72153238D02*
X175593595Y-72200857D01*
X175593595Y-72200857D02*
X175641214Y-72296095D01*
X175641214Y-72296095D02*
X175641214Y-72391333D01*
X175641214Y-72391333D02*
X175593595Y-72534190D01*
X175593595Y-72534190D02*
X175022167Y-73105619D01*
X175022167Y-73105619D02*
X175641214Y-73105619D01*
%TO.C,H1*%
X131826095Y-65994619D02*
X131826095Y-64994619D01*
X131826095Y-65470809D02*
X132397523Y-65470809D01*
X132397523Y-65994619D02*
X132397523Y-64994619D01*
X133397523Y-65994619D02*
X132826095Y-65994619D01*
X133111809Y-65994619D02*
X133111809Y-64994619D01*
X133111809Y-64994619D02*
X133016571Y-65137476D01*
X133016571Y-65137476D02*
X132921333Y-65232714D01*
X132921333Y-65232714D02*
X132826095Y-65280333D01*
%TO.C,R4*%
X188296619Y-82970666D02*
X187820428Y-83303999D01*
X188296619Y-83542094D02*
X187296619Y-83542094D01*
X187296619Y-83542094D02*
X187296619Y-83161142D01*
X187296619Y-83161142D02*
X187344238Y-83065904D01*
X187344238Y-83065904D02*
X187391857Y-83018285D01*
X187391857Y-83018285D02*
X187487095Y-82970666D01*
X187487095Y-82970666D02*
X187629952Y-82970666D01*
X187629952Y-82970666D02*
X187725190Y-83018285D01*
X187725190Y-83018285D02*
X187772809Y-83065904D01*
X187772809Y-83065904D02*
X187820428Y-83161142D01*
X187820428Y-83161142D02*
X187820428Y-83542094D01*
X187629952Y-82113523D02*
X188296619Y-82113523D01*
X187249000Y-82351618D02*
X187963285Y-82589713D01*
X187963285Y-82589713D02*
X187963285Y-81970666D01*
%TO.C,J10*%
X152225476Y-101976619D02*
X152225476Y-102690904D01*
X152225476Y-102690904D02*
X152177857Y-102833761D01*
X152177857Y-102833761D02*
X152082619Y-102929000D01*
X152082619Y-102929000D02*
X151939762Y-102976619D01*
X151939762Y-102976619D02*
X151844524Y-102976619D01*
X153225476Y-102976619D02*
X152654048Y-102976619D01*
X152939762Y-102976619D02*
X152939762Y-101976619D01*
X152939762Y-101976619D02*
X152844524Y-102119476D01*
X152844524Y-102119476D02*
X152749286Y-102214714D01*
X152749286Y-102214714D02*
X152654048Y-102262333D01*
X153844524Y-101976619D02*
X153939762Y-101976619D01*
X153939762Y-101976619D02*
X154035000Y-102024238D01*
X154035000Y-102024238D02*
X154082619Y-102071857D01*
X154082619Y-102071857D02*
X154130238Y-102167095D01*
X154130238Y-102167095D02*
X154177857Y-102357571D01*
X154177857Y-102357571D02*
X154177857Y-102595666D01*
X154177857Y-102595666D02*
X154130238Y-102786142D01*
X154130238Y-102786142D02*
X154082619Y-102881380D01*
X154082619Y-102881380D02*
X154035000Y-102929000D01*
X154035000Y-102929000D02*
X153939762Y-102976619D01*
X153939762Y-102976619D02*
X153844524Y-102976619D01*
X153844524Y-102976619D02*
X153749286Y-102929000D01*
X153749286Y-102929000D02*
X153701667Y-102881380D01*
X153701667Y-102881380D02*
X153654048Y-102786142D01*
X153654048Y-102786142D02*
X153606429Y-102595666D01*
X153606429Y-102595666D02*
X153606429Y-102357571D01*
X153606429Y-102357571D02*
X153654048Y-102167095D01*
X153654048Y-102167095D02*
X153701667Y-102071857D01*
X153701667Y-102071857D02*
X153749286Y-102024238D01*
X153749286Y-102024238D02*
X153844524Y-101976619D01*
D12*
%TO.C,POT2*%
X146306000Y-112905000D02*
X146306000Y-108075000D01*
X146306000Y-112905000D02*
X145546000Y-112905000D01*
X146306000Y-108075000D02*
X145546000Y-108075000D01*
X145546000Y-112905000D02*
X145546000Y-108075000D01*
X145546000Y-112905000D02*
X127256000Y-112905000D01*
X145546000Y-108075000D02*
X128016000Y-108075000D01*
X128016000Y-112904000D02*
X128016000Y-108075000D01*
X128016000Y-108075000D02*
X127256000Y-108075000D01*
X127256000Y-112905000D02*
X127256000Y-111490000D01*
X127256000Y-111490000D02*
X127256000Y-109490000D01*
X127256000Y-111490000D02*
X125736000Y-111490000D01*
X127256000Y-109490000D02*
X127256000Y-108075000D01*
X125736000Y-111490000D02*
X125736000Y-109490000D01*
X125736000Y-109490000D02*
X127256000Y-109490000D01*
X147129244Y-111760000D02*
G75*
G03*
X147129244Y-111760000I-63244J0D01*
G01*
D13*
%TO.C,R6*%
X189256936Y-100611000D02*
X189711064Y-100611000D01*
X189256936Y-102081000D02*
X189711064Y-102081000D01*
%TO.C,C5*%
X137972748Y-103103000D02*
X139395252Y-103103000D01*
X137972748Y-104923000D02*
X139395252Y-104923000D01*
%TO.C,C4*%
X137972748Y-105516000D02*
X139395252Y-105516000D01*
X137972748Y-107336000D02*
X139395252Y-107336000D01*
%TO.C,R5*%
X190908000Y-92302064D02*
X190908000Y-91847936D01*
X192378000Y-92302064D02*
X192378000Y-91847936D01*
%TO.C,R13-DNP*%
X139337064Y-89594000D02*
X134982936Y-89594000D01*
X139337064Y-86174000D02*
X134982936Y-86174000D01*
%TO.C,R11*%
X149378936Y-108993000D02*
X149833064Y-108993000D01*
X149378936Y-110463000D02*
X149833064Y-110463000D01*
D14*
%TO.C,J15*%
X135800000Y-80289400D02*
X135800000Y-80289400D01*
X135900000Y-80289400D02*
X135900000Y-80289400D01*
D15*
X136500000Y-78943200D02*
X136500000Y-81686400D01*
X138404600Y-77089400D02*
X141071600Y-77089000D01*
X138500000Y-83489400D02*
X140995400Y-83489400D01*
X142900400Y-78968600D02*
X142900400Y-81610200D01*
D14*
X135900000Y-80289400D02*
G75*
G03*
X135800000Y-80289400I-50000J0D01*
G01*
X135800000Y-80289400D02*
G75*
G03*
X135900000Y-80289400I50000J0D01*
G01*
D13*
%TO.C,R12*%
X143909064Y-98738000D02*
X139554936Y-98738000D01*
X143909064Y-95318000D02*
X139554936Y-95318000D01*
%TO.C,C3*%
X144966000Y-90278748D02*
X144966000Y-92601252D01*
X141546000Y-90278748D02*
X141546000Y-92601252D01*
%TO.C,R7*%
X184176936Y-108612000D02*
X184631064Y-108612000D01*
X184176936Y-110082000D02*
X184631064Y-110082000D01*
%TO.C,C1*%
X154355748Y-108818000D02*
X155778252Y-108818000D01*
X154355748Y-110638000D02*
X155778252Y-110638000D01*
%TO.C,C2*%
X148894748Y-111358000D02*
X150317252Y-111358000D01*
X148894748Y-113178000D02*
X150317252Y-113178000D01*
%TO.C,R10*%
X154839936Y-111406000D02*
X155294064Y-111406000D01*
X154839936Y-112876000D02*
X155294064Y-112876000D01*
%TO.C,R9*%
X165126936Y-111787000D02*
X165581064Y-111787000D01*
X165126936Y-113257000D02*
X165581064Y-113257000D01*
D12*
%TO.C,POT1*%
X146306000Y-75059000D02*
X146306000Y-70229000D01*
X146306000Y-75059000D02*
X145546000Y-75059000D01*
X146306000Y-70229000D02*
X145546000Y-70229000D01*
X145546000Y-75059000D02*
X145546000Y-70229000D01*
X145546000Y-75059000D02*
X127256000Y-75059000D01*
X145546000Y-70229000D02*
X128016000Y-70229000D01*
X128016000Y-75058000D02*
X128016000Y-70229000D01*
X128016000Y-70229000D02*
X127256000Y-70229000D01*
X127256000Y-75059000D02*
X127256000Y-73644000D01*
X127256000Y-73644000D02*
X127256000Y-71644000D01*
X127256000Y-73644000D02*
X125736000Y-73644000D01*
X127256000Y-71644000D02*
X127256000Y-70229000D01*
X125736000Y-73644000D02*
X125736000Y-71644000D01*
X125736000Y-71644000D02*
X127256000Y-71644000D01*
X147129244Y-73914000D02*
G75*
G03*
X147129244Y-73914000I-63244J0D01*
G01*
D13*
%TO.C,R3*%
X182702564Y-76935000D02*
X182248436Y-76935000D01*
X182702564Y-75465000D02*
X182248436Y-75465000D01*
%TO.C,R8*%
X174651936Y-112041000D02*
X175106064Y-112041000D01*
X174651936Y-113511000D02*
X175106064Y-113511000D01*
%TO.C,R2*%
X175082564Y-71728000D02*
X174628436Y-71728000D01*
X175082564Y-70258000D02*
X174628436Y-70258000D01*
%TO.C,R4*%
X188749000Y-83031064D02*
X188749000Y-82576936D01*
X190219000Y-83031064D02*
X190219000Y-82576936D01*
%TD*%
M02*
