%TF.GenerationSoftware,KiCad,Pcbnew,7.0.2-27-g7a50654f3b*%
%TF.CreationDate,2023-06-01T09:40:15-07:00*%
%TF.ProjectId,14_pin_pmt_Rev2,31345f70-696e-45f7-906d-745f52657632,rev?*%
%TF.SameCoordinates,Original*%
%TF.FileFunction,Soldermask,Bot*%
%TF.FilePolarity,Negative*%
%FSLAX46Y46*%
G04 Gerber Fmt 4.6, Leading zero omitted, Abs format (unit mm)*
G04 Created by KiCad (PCBNEW 7.0.2-27-g7a50654f3b) date 2023-06-01 09:40:15*
%MOMM*%
%LPD*%
G01*
G04 APERTURE LIST*
G04 Aperture macros list*
%AMRoundRect*
0 Rectangle with rounded corners*
0 $1 Rounding radius*
0 $2 $3 $4 $5 $6 $7 $8 $9 X,Y pos of 4 corners*
0 Add a 4 corners polygon primitive as box body*
4,1,4,$2,$3,$4,$5,$6,$7,$8,$9,$2,$3,0*
0 Add four circle primitives for the rounded corners*
1,1,$1+$1,$2,$3*
1,1,$1+$1,$4,$5*
1,1,$1+$1,$6,$7*
1,1,$1+$1,$8,$9*
0 Add four rect primitives between the rounded corners*
20,1,$1+$1,$2,$3,$4,$5,0*
20,1,$1+$1,$4,$5,$6,$7,0*
20,1,$1+$1,$6,$7,$8,$9,0*
20,1,$1+$1,$8,$9,$2,$3,0*%
G04 Aperture macros list end*
%ADD10R,1.140000X1.140000*%
%ADD11C,1.140000*%
%ADD12RoundRect,0.250002X-1.699998X-1.699998X1.699998X-1.699998X1.699998X1.699998X-1.699998X1.699998X0*%
%ADD13C,0.700000*%
%ADD14C,4.400000*%
%ADD15C,0.800000*%
%ADD16C,6.000000*%
%ADD17C,2.032000*%
%ADD18C,2.200000*%
G04 APERTURE END LIST*
D10*
%TO.C,POT2*%
X143256000Y-111760000D03*
D11*
X135636000Y-109220000D03*
X130556000Y-111760000D03*
%TD*%
D12*
%TO.C,J17*%
X130048000Y-80264000D03*
%TD*%
%TO.C,J14*%
X160655000Y-72390000D03*
%TD*%
D13*
%TO.C,H3*%
X127382000Y-117348000D03*
X127865274Y-116181274D03*
X127865274Y-118514726D03*
X129032000Y-115698000D03*
D14*
X129032000Y-117348000D03*
D13*
X129032000Y-118998000D03*
X130198726Y-116181274D03*
X130198726Y-118514726D03*
X130682000Y-117348000D03*
%TD*%
D12*
%TO.C,J9*%
X160655000Y-111760000D03*
%TD*%
D13*
%TO.C,H2*%
X193422000Y-67056000D03*
X193905274Y-65889274D03*
X193905274Y-68222726D03*
X195072000Y-65406000D03*
D14*
X195072000Y-67056000D03*
D13*
X195072000Y-68706000D03*
X196238726Y-65889274D03*
X196238726Y-68222726D03*
X196722000Y-67056000D03*
%TD*%
D12*
%TO.C,J12*%
X128524000Y-105156000D03*
%TD*%
D15*
%TO.C,H6*%
X161961000Y-104485000D03*
X162620010Y-102894010D03*
X162620010Y-106075990D03*
X164211000Y-102235000D03*
D16*
X164211000Y-104485000D03*
D15*
X164211000Y-106735000D03*
X165801990Y-102894010D03*
X165801990Y-106075990D03*
X166461000Y-104485000D03*
%TD*%
D12*
%TO.C,J1*%
X170180000Y-70231000D03*
%TD*%
D17*
%TO.C,J15*%
X139700000Y-80289400D03*
D18*
X137160000Y-82829400D03*
X142240000Y-82829400D03*
X142240000Y-77724000D03*
X137236200Y-77724000D03*
%TD*%
D12*
%TO.C,J8*%
X170180000Y-113919000D03*
%TD*%
D15*
%TO.C,H5*%
X173959010Y-79695990D03*
X174618020Y-78105000D03*
X174618020Y-81286980D03*
X176209010Y-77445990D03*
D16*
X176209010Y-79695990D03*
D15*
X176209010Y-81945990D03*
X177800000Y-78105000D03*
X177800000Y-81286980D03*
X178459010Y-79695990D03*
%TD*%
D12*
%TO.C,J3*%
X187325000Y-78486000D03*
%TD*%
%TO.C,J5*%
X191516000Y-96901000D03*
%TD*%
%TO.C,J4*%
X191516000Y-87249000D03*
%TD*%
%TO.C,J6*%
X187325000Y-105664000D03*
%TD*%
%TO.C,J2*%
X179705000Y-72390000D03*
%TD*%
D13*
%TO.C,H4*%
X193699726Y-117474000D03*
X194183000Y-116307274D03*
X194183000Y-118640726D03*
X195349726Y-115824000D03*
D14*
X195349726Y-117474000D03*
D13*
X195349726Y-119124000D03*
X196516452Y-116307274D03*
X196516452Y-118640726D03*
X196999726Y-117474000D03*
%TD*%
D12*
%TO.C,J11*%
X148844000Y-96901000D03*
%TD*%
D10*
%TO.C,POT1*%
X143256000Y-73914000D03*
D11*
X135636000Y-71374000D03*
X130556000Y-73914000D03*
%TD*%
D12*
%TO.C,J13*%
X153035000Y-78486000D03*
%TD*%
%TO.C,J7*%
X179705000Y-111760000D03*
%TD*%
D13*
%TO.C,H1*%
X127382000Y-67056000D03*
X127865274Y-65889274D03*
X127865274Y-68222726D03*
X129032000Y-65406000D03*
D14*
X129032000Y-67056000D03*
D13*
X129032000Y-68706000D03*
X130198726Y-65889274D03*
X130198726Y-68222726D03*
X130682000Y-67056000D03*
%TD*%
D12*
%TO.C,J10*%
X153035000Y-105664000D03*
%TD*%
M02*
