M48
; DRILL file {KiCad 7.0.2-27-g7a50654f3b} date Thu Jun  1 09:40:09 2023
; FORMAT={-:-/ absolute / inch / decimal}
; #@! TF.CreationDate,2023-06-01T09:40:09-07:00
; #@! TF.GenerationSoftware,Kicad,Pcbnew,7.0.2-27-g7a50654f3b
; #@! TF.FileFunction,Plated,1,2,PTH
FMAT,2
INCH
; #@! TA.AperFunction,Plated,PTH,ComponentDrill
T1C0.0157
; #@! TA.AperFunction,Plated,PTH,ComponentDrill
T2C0.0197
; #@! TA.AperFunction,Plated,PTH,ComponentDrill
T3C0.0291
; #@! TA.AperFunction,Plated,PTH,ComponentDrill
T4C0.0591
; #@! TA.AperFunction,Plated,PTH,ComponentDrill
T5C0.0669
; #@! TA.AperFunction,Plated,PTH,ComponentDrill
T6C0.0827
; #@! TA.AperFunction,Plated,PTH,ComponentDrill
T7C0.0866
; #@! TA.AperFunction,Plated,PTH,ComponentDrill
T8C0.1181
%
G90
G05
T1
X5.015Y-2.64
X5.015Y-4.62
X5.0341Y-2.5941
X5.0341Y-2.6859
X5.0341Y-4.5741
X5.0341Y-4.6659
X5.08Y-2.575
X5.08Y-2.705
X5.08Y-4.555
X5.08Y-4.685
X5.1259Y-2.5941
X5.1259Y-2.6859
X5.1259Y-4.5741
X5.1259Y-4.6659
X5.145Y-2.64
X5.145Y-4.62
X7.615Y-2.64
X7.626Y-4.625
X7.6341Y-2.5941
X7.6341Y-2.6859
X7.645Y-4.579
X7.645Y-4.6709
X7.68Y-2.575
X7.68Y-2.705
X7.6909Y-4.56
X7.6909Y-4.6899
X7.7259Y-2.5941
X7.7259Y-2.6859
X7.7369Y-4.579
X7.7369Y-4.6709
X7.745Y-2.64
X7.7559Y-4.625
T2
X6.3764Y-4.1136
X6.4024Y-4.0509
X6.4024Y-4.1762
X6.465Y-4.025
X6.465Y-4.2022
X6.5276Y-4.0509
X6.5276Y-4.1762
X6.5536Y-4.1136
X6.8488Y-3.1376
X6.8747Y-3.075
X6.8747Y-3.2003
X6.9374Y-3.0491
X6.9374Y-3.2262
X7.0Y-3.075
X7.0Y-3.2003
X7.0259Y-3.1376
T3
X5.14Y-2.91
X5.14Y-4.4
X5.34Y-2.81
X5.34Y-4.3
X5.64Y-2.91
X5.64Y-4.4
T4
X5.5Y-3.161
T5
X5.4Y-3.261
X5.403Y-3.06
X5.6Y-3.06
X5.6Y-3.261
T6
X5.06Y-4.14
X5.12Y-3.16
X5.86Y-3.815
X6.025Y-3.09
X6.025Y-4.16
X6.325Y-2.85
X6.325Y-4.4
X6.7Y-2.765
X6.7Y-4.485
X7.075Y-2.85
X7.075Y-4.4
X7.375Y-3.09
X7.375Y-4.16
X7.54Y-3.435
X7.54Y-3.815
T7
X5.08Y-2.64
X5.08Y-4.62
X7.68Y-2.64
X7.6909Y-4.625
T8
X6.465Y-4.1136
X6.9374Y-3.1376
T0
M30
