%TF.GenerationSoftware,KiCad,Pcbnew,7.0.2-27-g7a50654f3b*%
%TF.CreationDate,2023-06-01T09:40:15-07:00*%
%TF.ProjectId,14_pin_pmt_Rev2,31345f70-696e-45f7-906d-745f52657632,rev?*%
%TF.SameCoordinates,Original*%
%TF.FileFunction,Copper,L1,Top*%
%TF.FilePolarity,Positive*%
%FSLAX46Y46*%
G04 Gerber Fmt 4.6, Leading zero omitted, Abs format (unit mm)*
G04 Created by KiCad (PCBNEW 7.0.2-27-g7a50654f3b) date 2023-06-01 09:40:15*
%MOMM*%
%LPD*%
G01*
G04 APERTURE LIST*
G04 Aperture macros list*
%AMRoundRect*
0 Rectangle with rounded corners*
0 $1 Rounding radius*
0 $2 $3 $4 $5 $6 $7 $8 $9 X,Y pos of 4 corners*
0 Add a 4 corners polygon primitive as box body*
4,1,4,$2,$3,$4,$5,$6,$7,$8,$9,$2,$3,0*
0 Add four circle primitives for the rounded corners*
1,1,$1+$1,$2,$3*
1,1,$1+$1,$4,$5*
1,1,$1+$1,$6,$7*
1,1,$1+$1,$8,$9*
0 Add four rect primitives between the rounded corners*
20,1,$1+$1,$2,$3,$4,$5,0*
20,1,$1+$1,$4,$5,$6,$7,0*
20,1,$1+$1,$6,$7,$8,$9,0*
20,1,$1+$1,$8,$9,$2,$3,0*%
G04 Aperture macros list end*
%TA.AperFunction,ComponentPad*%
%ADD10R,1.140000X1.140000*%
%TD*%
%TA.AperFunction,ComponentPad*%
%ADD11C,1.140000*%
%TD*%
%TA.AperFunction,SMDPad,CuDef*%
%ADD12RoundRect,0.250000X-0.262500X-0.450000X0.262500X-0.450000X0.262500X0.450000X-0.262500X0.450000X0*%
%TD*%
%TA.AperFunction,SMDPad,CuDef*%
%ADD13RoundRect,0.250000X-0.325000X-0.650000X0.325000X-0.650000X0.325000X0.650000X-0.325000X0.650000X0*%
%TD*%
%TA.AperFunction,ComponentPad*%
%ADD14RoundRect,0.250002X-1.699998X-1.699998X1.699998X-1.699998X1.699998X1.699998X-1.699998X1.699998X0*%
%TD*%
%TA.AperFunction,ComponentPad*%
%ADD15C,0.700000*%
%TD*%
%TA.AperFunction,ComponentPad*%
%ADD16C,4.400000*%
%TD*%
%TA.AperFunction,SMDPad,CuDef*%
%ADD17RoundRect,0.250000X0.450000X-0.262500X0.450000X0.262500X-0.450000X0.262500X-0.450000X-0.262500X0*%
%TD*%
%TA.AperFunction,ComponentPad*%
%ADD18C,0.800000*%
%TD*%
%TA.AperFunction,ComponentPad*%
%ADD19C,6.000000*%
%TD*%
%TA.AperFunction,SMDPad,CuDef*%
%ADD20RoundRect,0.250000X0.362500X1.425000X-0.362500X1.425000X-0.362500X-1.425000X0.362500X-1.425000X0*%
%TD*%
%TA.AperFunction,ComponentPad*%
%ADD21C,2.032000*%
%TD*%
%TA.AperFunction,ComponentPad*%
%ADD22C,2.200000*%
%TD*%
%TA.AperFunction,SMDPad,CuDef*%
%ADD23RoundRect,0.249999X-1.450001X0.450001X-1.450001X-0.450001X1.450001X-0.450001X1.450001X0.450001X0*%
%TD*%
%TA.AperFunction,SMDPad,CuDef*%
%ADD24RoundRect,0.250000X0.262500X0.450000X-0.262500X0.450000X-0.262500X-0.450000X0.262500X-0.450000X0*%
%TD*%
%TA.AperFunction,Conductor*%
%ADD25C,0.250000*%
%TD*%
G04 APERTURE END LIST*
D10*
%TO.P,POT2,1,1*%
%TO.N,Net-(C2-Pad1)*%
X143256000Y-111760000D03*
D11*
%TO.P,POT2,2,2*%
%TO.N,Net-(J12-Pin_1)*%
X135636000Y-109220000D03*
%TO.P,POT2,3,3*%
X130556000Y-111760000D03*
%TD*%
D12*
%TO.P,R6,1*%
%TO.N,Net-(J6-Pin_1)*%
X188571500Y-101346000D03*
%TO.P,R6,2*%
%TO.N,Net-(J5-Pin_1)*%
X190396500Y-101346000D03*
%TD*%
D13*
%TO.P,C5,1*%
%TO.N,Net-(J12-Pin_1)*%
X137209000Y-104013000D03*
%TO.P,C5,2*%
%TO.N,Net-(C2-Pad1)*%
X140159000Y-104013000D03*
%TD*%
D14*
%TO.P,J17,1,Pin_1*%
%TO.N,GND*%
X130048000Y-80264000D03*
%TD*%
%TO.P,J14,1,Pin_1*%
%TO.N,GND*%
X160655000Y-72390000D03*
%TD*%
D15*
%TO.P,H3,1,1*%
%TO.N,unconnected-(H3-Pad1)*%
X127382000Y-117348000D03*
X127865274Y-116181274D03*
X127865274Y-118514726D03*
X129032000Y-115698000D03*
D16*
X129032000Y-117348000D03*
D15*
X129032000Y-118998000D03*
X130198726Y-116181274D03*
X130198726Y-118514726D03*
X130682000Y-117348000D03*
%TD*%
D13*
%TO.P,C4,1*%
%TO.N,Net-(J12-Pin_1)*%
X137209000Y-106426000D03*
%TO.P,C4,2*%
%TO.N,Net-(C2-Pad1)*%
X140159000Y-106426000D03*
%TD*%
D17*
%TO.P,R5,1*%
%TO.N,Net-(J5-Pin_1)*%
X191643000Y-92987500D03*
%TO.P,R5,2*%
%TO.N,Net-(J4-Pin_1)*%
X191643000Y-91162500D03*
%TD*%
D14*
%TO.P,J9,1,Pin_1*%
%TO.N,Net-(J9-Pin_1)*%
X160655000Y-111760000D03*
%TD*%
D15*
%TO.P,H2,1,1*%
%TO.N,unconnected-(H2-Pad1)*%
X193422000Y-67056000D03*
X193905274Y-65889274D03*
X193905274Y-68222726D03*
X195072000Y-65406000D03*
D16*
X195072000Y-67056000D03*
D15*
X195072000Y-68706000D03*
X196238726Y-65889274D03*
X196238726Y-68222726D03*
X196722000Y-67056000D03*
%TD*%
D14*
%TO.P,J12,1,Pin_1*%
%TO.N,Net-(J12-Pin_1)*%
X128524000Y-105156000D03*
%TD*%
D18*
%TO.P,H6,1,1*%
%TO.N,unconnected-(H6-Pad1)*%
X161961000Y-104485000D03*
X162620010Y-102894010D03*
X162620010Y-106075990D03*
X164211000Y-102235000D03*
D19*
X164211000Y-104485000D03*
D18*
X164211000Y-106735000D03*
X165801990Y-102894010D03*
X165801990Y-106075990D03*
X166461000Y-104485000D03*
%TD*%
D20*
%TO.P,R13-DNP,1*%
%TO.N,Net-(C3-Pad1)*%
X140122500Y-87884000D03*
%TO.P,R13-DNP,2*%
%TO.N,GND*%
X134197500Y-87884000D03*
%TD*%
D12*
%TO.P,R11,1*%
%TO.N,Net-(C2-Pad1)*%
X148693500Y-109728000D03*
%TO.P,R11,2*%
%TO.N,Net-(J10-Pin_1)*%
X150518500Y-109728000D03*
%TD*%
D14*
%TO.P,J1,1,Pin_1*%
%TO.N,Net-(J1-Pin_1)*%
X170180000Y-70231000D03*
%TD*%
D21*
%TO.P,J15,1,1*%
%TO.N,Net-(C3-Pad1)*%
X139700000Y-80289400D03*
D22*
%TO.P,J15,2,2*%
%TO.N,GND*%
X137160000Y-82829400D03*
%TO.P,J15,3,3*%
X142240000Y-82829400D03*
%TO.P,J15,4,4*%
X142240000Y-77724000D03*
%TO.P,J15,5,5*%
X137236200Y-77724000D03*
%TD*%
D20*
%TO.P,R12,1*%
%TO.N,Net-(J11-Pin_1)*%
X144694500Y-97028000D03*
%TO.P,R12,2*%
%TO.N,Net-(C2-Pad1)*%
X138769500Y-97028000D03*
%TD*%
D23*
%TO.P,C3,1*%
%TO.N,Net-(C3-Pad1)*%
X143256000Y-89390000D03*
%TO.P,C3,2*%
%TO.N,Net-(J11-Pin_1)*%
X143256000Y-93490000D03*
%TD*%
D14*
%TO.P,J8,1,Pin_1*%
%TO.N,Net-(J8-Pin_1)*%
X170180000Y-113919000D03*
%TD*%
D18*
%TO.P,H5,1,1*%
%TO.N,unconnected-(H5-Pad1)*%
X173959010Y-79695990D03*
X174618020Y-78105000D03*
X174618020Y-81286980D03*
X176209010Y-77445990D03*
D19*
X176209010Y-79695990D03*
D18*
X176209010Y-81945990D03*
X177800000Y-78105000D03*
X177800000Y-81286980D03*
X178459010Y-79695990D03*
%TD*%
D12*
%TO.P,R7,1*%
%TO.N,Net-(J7-Pin_1)*%
X183491500Y-109347000D03*
%TO.P,R7,2*%
%TO.N,Net-(J6-Pin_1)*%
X185316500Y-109347000D03*
%TD*%
D14*
%TO.P,J3,1,Pin_1*%
%TO.N,Net-(J3-Pin_1)*%
X187325000Y-78486000D03*
%TD*%
%TO.P,J5,1,Pin_1*%
%TO.N,Net-(J5-Pin_1)*%
X191516000Y-96901000D03*
%TD*%
%TO.P,J4,1,Pin_1*%
%TO.N,Net-(J4-Pin_1)*%
X191516000Y-87249000D03*
%TD*%
%TO.P,J6,1,Pin_1*%
%TO.N,Net-(J6-Pin_1)*%
X187325000Y-105664000D03*
%TD*%
%TO.P,J2,1,Pin_1*%
%TO.N,Net-(J2-Pin_1)*%
X179705000Y-72390000D03*
%TD*%
D13*
%TO.P,C1,1*%
%TO.N,Net-(J10-Pin_1)*%
X153592000Y-109728000D03*
%TO.P,C1,2*%
%TO.N,Net-(J9-Pin_1)*%
X156542000Y-109728000D03*
%TD*%
%TO.P,C2,1*%
%TO.N,Net-(C2-Pad1)*%
X148131000Y-112268000D03*
%TO.P,C2,2*%
%TO.N,Net-(J10-Pin_1)*%
X151081000Y-112268000D03*
%TD*%
D12*
%TO.P,R10,1*%
%TO.N,Net-(J10-Pin_1)*%
X154154500Y-112141000D03*
%TO.P,R10,2*%
%TO.N,Net-(J9-Pin_1)*%
X155979500Y-112141000D03*
%TD*%
D15*
%TO.P,H4,1,1*%
%TO.N,unconnected-(H4-Pad1)*%
X193699726Y-117474000D03*
X194183000Y-116307274D03*
X194183000Y-118640726D03*
X195349726Y-115824000D03*
D16*
X195349726Y-117474000D03*
D15*
X195349726Y-119124000D03*
X196516452Y-116307274D03*
X196516452Y-118640726D03*
X196999726Y-117474000D03*
%TD*%
D14*
%TO.P,J11,1,Pin_1*%
%TO.N,Net-(J11-Pin_1)*%
X148844000Y-96901000D03*
%TD*%
D12*
%TO.P,R9,1*%
%TO.N,Net-(J9-Pin_1)*%
X164441500Y-112522000D03*
%TO.P,R9,2*%
%TO.N,Net-(J8-Pin_1)*%
X166266500Y-112522000D03*
%TD*%
D10*
%TO.P,POT1,1,1*%
%TO.N,GND*%
X143256000Y-73914000D03*
D11*
%TO.P,POT1,2,2*%
%TO.N,Net-(J13-Pin_1)*%
X135636000Y-71374000D03*
%TO.P,POT1,3,3*%
%TO.N,Net-(J1-Pin_1)*%
X130556000Y-73914000D03*
%TD*%
D24*
%TO.P,R3,1*%
%TO.N,Net-(J3-Pin_1)*%
X183388000Y-76200000D03*
%TO.P,R3,2*%
%TO.N,Net-(J2-Pin_1)*%
X181563000Y-76200000D03*
%TD*%
D14*
%TO.P,J13,1,Pin_1*%
%TO.N,Net-(J13-Pin_1)*%
X153035000Y-78486000D03*
%TD*%
%TO.P,J7,1,Pin_1*%
%TO.N,Net-(J7-Pin_1)*%
X179705000Y-111760000D03*
%TD*%
D12*
%TO.P,R8,1*%
%TO.N,Net-(J8-Pin_1)*%
X173966500Y-112776000D03*
%TO.P,R8,2*%
%TO.N,Net-(J7-Pin_1)*%
X175791500Y-112776000D03*
%TD*%
D24*
%TO.P,R2,1*%
%TO.N,Net-(J2-Pin_1)*%
X175768000Y-70993000D03*
%TO.P,R2,2*%
%TO.N,Net-(J1-Pin_1)*%
X173943000Y-70993000D03*
%TD*%
D15*
%TO.P,H1,1,1*%
%TO.N,GND*%
X127382000Y-67056000D03*
X127865274Y-65889274D03*
X127865274Y-68222726D03*
X129032000Y-65406000D03*
D16*
X129032000Y-67056000D03*
D15*
X129032000Y-68706000D03*
X130198726Y-65889274D03*
X130198726Y-68222726D03*
X130682000Y-67056000D03*
%TD*%
D17*
%TO.P,R4,1*%
%TO.N,Net-(J4-Pin_1)*%
X189484000Y-83716500D03*
%TO.P,R4,2*%
%TO.N,Net-(J3-Pin_1)*%
X189484000Y-81891500D03*
%TD*%
D14*
%TO.P,J10,1,Pin_1*%
%TO.N,Net-(J10-Pin_1)*%
X153035000Y-105664000D03*
%TD*%
D25*
%TO.N,Net-(J10-Pin_1)*%
X153592000Y-109728000D02*
X153592000Y-108761000D01*
X153592000Y-111301000D02*
X153592000Y-109728000D01*
X151208000Y-112141000D02*
X151081000Y-112268000D01*
X153035000Y-108204000D02*
X153035000Y-105664000D01*
X154154500Y-112141000D02*
X154154500Y-111863500D01*
X154154500Y-111863500D02*
X153592000Y-111301000D01*
X151081000Y-110290500D02*
X150518500Y-109728000D01*
X153592000Y-108761000D02*
X153035000Y-108204000D01*
X151081000Y-112268000D02*
X151081000Y-110290500D01*
X154154500Y-112141000D02*
X151208000Y-112141000D01*
%TO.N,Net-(J9-Pin_1)*%
X156542000Y-109728000D02*
X158623000Y-109728000D01*
X158623000Y-109728000D02*
X160655000Y-111760000D01*
X164441500Y-112522000D02*
X161417000Y-112522000D01*
X155979500Y-112141000D02*
X156542000Y-111578500D01*
X161417000Y-112522000D02*
X160655000Y-111760000D01*
X156542000Y-111578500D02*
X156542000Y-109728000D01*
%TO.N,Net-(C2-Pad1)*%
X140208000Y-108712000D02*
X140208000Y-106475000D01*
X145288000Y-111760000D02*
X143256000Y-111760000D01*
X140159000Y-101678000D02*
X138811000Y-100330000D01*
X138811000Y-100330000D02*
X138811000Y-97069500D01*
X143256000Y-111760000D02*
X140208000Y-108712000D01*
X140208000Y-106475000D02*
X140159000Y-106426000D01*
X140159000Y-104140000D02*
X140159000Y-101678000D01*
X140159000Y-106426000D02*
X140159000Y-104140000D01*
X148131000Y-110290500D02*
X148693500Y-109728000D01*
X145796000Y-112268000D02*
X145288000Y-111760000D01*
X148131000Y-112268000D02*
X145796000Y-112268000D01*
X138811000Y-97069500D02*
X138769500Y-97028000D01*
X148131000Y-112268000D02*
X148131000Y-110290500D01*
%TO.N,Net-(J11-Pin_1)*%
X144694500Y-94928500D02*
X143256000Y-93490000D01*
X148717000Y-97028000D02*
X144694500Y-97028000D01*
X148844000Y-96901000D02*
X148717000Y-97028000D01*
X144694500Y-97028000D02*
X144694500Y-94928500D01*
%TO.N,Net-(J1-Pin_1)*%
X130556000Y-73914000D02*
X130556000Y-71374000D01*
X135128000Y-66802000D02*
X166751000Y-66802000D01*
X166751000Y-66802000D02*
X170180000Y-70231000D01*
X130556000Y-71374000D02*
X135128000Y-66802000D01*
X170180000Y-70231000D02*
X170942000Y-70993000D01*
X170942000Y-70993000D02*
X173943000Y-70993000D01*
%TO.N,Net-(J2-Pin_1)*%
X181563000Y-76200000D02*
X181563000Y-74248000D01*
X178308000Y-70993000D02*
X179705000Y-72390000D01*
X175768000Y-70993000D02*
X178308000Y-70993000D01*
X181563000Y-74248000D02*
X179705000Y-72390000D01*
%TO.N,Net-(J3-Pin_1)*%
X187325000Y-79375000D02*
X187325000Y-78486000D01*
X185039000Y-76200000D02*
X187325000Y-78486000D01*
X183388000Y-76200000D02*
X185039000Y-76200000D01*
X189484000Y-81534000D02*
X187325000Y-79375000D01*
X189484000Y-81891500D02*
X189484000Y-81534000D01*
%TO.N,Net-(J4-Pin_1)*%
X191643000Y-91162500D02*
X191643000Y-87376000D01*
X189484000Y-83947000D02*
X191516000Y-85979000D01*
X189484000Y-83716500D02*
X189484000Y-83947000D01*
X191516000Y-85979000D02*
X191516000Y-87249000D01*
X191643000Y-87376000D02*
X191516000Y-87249000D01*
%TO.N,Net-(J5-Pin_1)*%
X191643000Y-92987500D02*
X191643000Y-96774000D01*
X191516000Y-99314000D02*
X191516000Y-96901000D01*
X190396500Y-101346000D02*
X190396500Y-100433500D01*
X191643000Y-96774000D02*
X191516000Y-96901000D01*
X190396500Y-100433500D02*
X191516000Y-99314000D01*
%TO.N,Net-(J6-Pin_1)*%
X187325000Y-107338500D02*
X187325000Y-105664000D01*
X185316500Y-109347000D02*
X187325000Y-107338500D01*
X188571500Y-101346000D02*
X187325000Y-102592500D01*
X187325000Y-102592500D02*
X187325000Y-105664000D01*
%TO.N,Net-(J7-Pin_1)*%
X175791500Y-112776000D02*
X178689000Y-112776000D01*
X182118000Y-109347000D02*
X179705000Y-111760000D01*
X178689000Y-112776000D02*
X179705000Y-111760000D01*
X183491500Y-109347000D02*
X182118000Y-109347000D01*
%TO.N,Net-(J8-Pin_1)*%
X171323000Y-112776000D02*
X170180000Y-113919000D01*
X170180000Y-113919000D02*
X168783000Y-112522000D01*
X168783000Y-112522000D02*
X166266500Y-112522000D01*
X173966500Y-112776000D02*
X171323000Y-112776000D01*
%TO.N,GND*%
X128524000Y-82210500D02*
X134197500Y-87884000D01*
X128524000Y-80264000D02*
X128524000Y-82210500D01*
%TO.N,Net-(C3-Pad1)*%
X139700000Y-87461500D02*
X139700000Y-80289400D01*
X140122500Y-87884000D02*
X139700000Y-87461500D01*
X141628500Y-89390000D02*
X143256000Y-89390000D01*
X140122500Y-87884000D02*
X141628500Y-89390000D01*
%TO.N,Net-(J13-Pin_1)*%
X145923000Y-71374000D02*
X153035000Y-78486000D01*
X135636000Y-71374000D02*
X145923000Y-71374000D01*
%TO.N,Net-(J12-Pin_1)*%
X130556000Y-111760000D02*
X133096000Y-111760000D01*
X132588000Y-109220000D02*
X135636000Y-109220000D01*
X128524000Y-105156000D02*
X132588000Y-109220000D01*
X133096000Y-111760000D02*
X135636000Y-109220000D01*
X136906000Y-106729000D02*
X136906000Y-107823000D01*
X136906000Y-107950000D02*
X136906000Y-107823000D01*
X135636000Y-109220000D02*
X136906000Y-107950000D01*
X137209000Y-106426000D02*
X136906000Y-106729000D01*
X137209000Y-104140000D02*
X137209000Y-106426000D01*
%TD*%
M02*
